<svg xmlns="http://www.w3.org/2000/svg" xmlns:xlink="http://www.w3.org/1999/xlink" id="Layer_1" width="100%" x="0" y="0" enable-background="new 0 0 512 512" version="1.1" viewBox="0 0 512 512" xml:space="preserve"><path fill="#533C2A" stroke="none" d="M1.000000,504.000000 C1.000000,361.643341 1.000000,219.286682 1.338403,76.346100 C2.427310,73.969727 3.397258,72.235565 3.891413,70.375038 C6.413143,60.880550 8.715798,51.327438 11.277503,41.844109 C14.675183,29.266024 25.979578,20.080784 38.589245,20.051170 C83.901123,19.944750 129.215927,19.750420 174.523804,20.190481 C186.313477,20.304989 195.889954,26.349981 199.973831,37.912601 C203.564255,48.078125 205.825226,58.722755 208.490601,69.202271 C210.455566,76.927933 210.324387,76.962540 218.138168,76.963524 C316.425446,76.975906 414.712708,76.987907 513.000000,77.000000 C513.000000,219.023331 513.000000,361.046661 512.531372,503.542236 C341.708527,504.009674 171.354263,504.004852 1.000000,504.000000 M476.799011,275.538574 C478.575531,267.038635 480.352051,258.538666 482.433685,249.321701 C489.218567,214.164749 490.682465,178.626404 490.199829,142.933945 C490.146393,138.980667 487.667908,138.525589 484.843506,137.718155 C420.155579,119.225105 355.466614,100.735359 290.828125,82.070778 C285.151794,80.431717 279.984741,80.382858 274.289246,82.026276 C209.167725,100.816940 143.999908,119.447624 78.805679,137.984604 C75.227333,139.002045 73.949104,140.585281 74.125381,144.214783 C75.214951,166.648956 75.690071,189.124847 77.338570,211.515518 C78.312431,224.742981 81.069077,237.839188 83.019287,251.843872 C84.588852,259.229675 86.158417,266.615479 87.767029,274.841797 C88.102051,276.634216 88.280640,278.472992 88.796310,280.211853 C93.903313,297.432404 99.066139,314.636383 103.441208,331.994110 C92.936821,334.355927 85.409454,340.257904 83.411751,351.098969 C81.502960,361.457520 85.881981,369.500183 94.572418,375.430481 C95.671616,376.180603 96.345627,378.843811 95.956306,380.278717 C93.136765,390.670868 96.273346,399.026581 104.309448,405.673401 C114.903114,414.435669 133.265793,409.774231 138.357803,397.310547 C138.357803,397.310547 138.820099,397.383636 139.005341,398.032715 C139.863846,399.453979 140.646255,400.928192 141.592316,402.288574 C154.468246,420.803070 169.066467,437.748840 186.008682,452.742523 C202.745056,467.554108 220.966537,479.862854 241.716385,488.243958 C267.469727,498.646027 293.417511,499.467285 319.601929,489.659546 C343.195831,480.822113 363.612396,466.994751 382.065094,450.124695 C398.959198,434.679504 414.012482,417.625885 426.427856,397.929596 C426.427856,397.929596 426.846497,397.839447 427.174652,398.462799 C433.559387,408.886932 445.270264,412.921906 456.000671,408.394653 C466.768707,403.851562 472.384338,392.312897 469.023560,380.886383 C468.092010,377.719269 468.817444,376.314758 471.474548,374.498566 C481.260223,367.809906 484.115967,358.184296 480.196289,347.022797 C476.957031,337.798828 469.684753,333.806885 460.874115,331.095215 C462.257629,327.002838 463.856934,322.968964 464.985504,318.807434 C468.845184,304.575104 472.539368,290.297913 476.799011,275.538574 M31.006781,30.782854 C30.602179,36.992073 29.203169,42.792130 25.381516,47.974632 C23.758629,50.175411 22.795124,53.027515 22.143505,55.731010 C21.543348,58.220993 21.071884,59.890686 17.966387,60.191593 C14.986614,60.480320 14.795344,62.686131 16.293720,64.979477 C17.096931,66.208832 18.034393,67.350479 18.867384,68.472588 C16.010887,72.670326 16.310394,74.746628 21.140753,75.345482 C30.294979,76.480385 39.590832,76.841156 48.824448,76.797920 C52.884403,76.778908 58.792088,68.649605 57.763275,64.972664 C56.131439,59.140560 54.273796,53.250725 51.532890,47.885330 C49.010601,42.947880 46.500217,38.308750 46.439747,32.555210 C46.394665,28.265797 43.830265,25.163116 39.595795,24.506512 C35.536346,23.877045 32.680389,26.179861 31.006781,30.782854 z" opacity="1"/><path fill="#331A0F" stroke="none" d="M513.000000,76.531342 C414.712708,76.987907 316.425446,76.975906 218.138168,76.963524 C210.324387,76.962540 210.455566,76.927933 208.490601,69.202271 C205.825226,58.722755 203.564255,48.078125 199.973831,37.912601 C195.889954,26.349981 186.313477,20.304989 174.523804,20.190481 C129.215927,19.750420 83.901123,19.944750 38.589245,20.051170 C25.979578,20.080784 14.675183,29.266024 11.277503,41.844109 C8.715798,51.327438 6.413143,60.880550 3.891413,70.375038 C3.397258,72.235565 2.427310,73.969727 1.338403,75.881088 C1.000000,51.016495 1.000000,26.032991 1.000003,1.052832 C171.666672,1.056177 342.333344,1.056177 513.000000,1.056177 C513.000000,26.095797 513.000000,51.079239 513.000000,76.531342 z" opacity="1"/><path fill="#331A0F" stroke="none" d="M1.000000,504.444153 C171.354263,504.004852 341.708527,504.009674 512.531372,504.007263 C513.000000,506.370575 513.000000,508.741119 512.537415,511.563263 C341.716553,512.009888 171.358276,512.004944 1.000000,512.000000 C1.000000,509.629425 1.000000,507.258881 1.000000,504.444153 z" opacity="1"/><path fill="#DFCD9E" stroke="none" d="M1.000000,512.500000 C171.358276,512.004944 341.716553,512.009888 512.537415,512.007385 C511.834808,512.333313 510.670471,512.953674 509.504272,512.957214 C490.023438,513.017212 470.542358,513.000000 451.061340,513.000000 C301.040894,513.000000 151.020447,513.000000 1.000000,512.500000 z" opacity="1"/><path fill="#718B57" stroke="none" d="M83.024002,250.994431 C81.069077,237.839188 78.312431,224.742981 77.338570,211.515518 C75.690071,189.124847 75.214951,166.648956 74.125381,144.214783 C73.949104,140.585281 75.227333,139.002045 78.805679,137.984604 C143.999908,119.447624 209.167725,100.816940 274.289246,82.026276 C279.984741,80.382858 285.151794,80.431717 290.828125,82.070778 C355.466614,100.735359 420.155579,119.225105 484.843506,137.718155 C487.667908,138.525589 490.146393,138.980667 490.199829,142.933945 C490.682465,178.626404 489.218567,214.164749 481.932861,249.596497 C478.807800,246.962555 476.682739,243.159164 473.443878,241.351898 C468.412781,238.544617 468.138458,235.414536 469.494049,230.438263 C471.476898,223.159637 467.459900,213.760529 461.969177,210.540771 C462.723450,194.800629 463.292938,179.496613 464.420624,164.233841 C464.719543,160.187683 463.730133,158.739792 459.922363,157.657822 C405.125702,142.087372 350.356445,126.419510 295.631104,110.600266 C287.870544,108.356949 280.772369,107.178261 272.432922,109.634445 C216.672012,126.057480 160.729675,141.865891 104.804054,157.725082 C101.321693,158.712616 100.515495,160.150467 100.723915,163.613174 C101.673653,179.391953 102.305847,195.189819 102.710373,211.058380 C96.166992,215.177917 93.809761,221.838806 95.399422,228.033386 C97.282097,235.369812 95.154999,239.268112 89.563148,243.170334 C86.873344,245.047409 85.172630,248.341843 83.024002,250.994431 z" opacity="1"/><path fill="#718B57" stroke="none" d="M426.010071,398.023376 C414.012482,417.625885 398.959198,434.679504 382.065094,450.124695 C363.612396,466.994751 343.195831,480.822113 319.601929,489.659546 C293.417511,499.467285 267.469727,498.646027 241.716385,488.243958 C220.966537,479.862854 202.745056,467.554108 186.008682,452.742523 C169.066467,437.748840 154.468246,420.803070 141.592316,402.288574 C140.646255,400.928192 139.863846,399.453979 138.978394,397.273438 C139.660355,392.776184 140.226395,389.002106 141.155853,385.319794 C141.480057,384.035370 142.466278,382.320190 143.553879,381.931549 C147.872650,380.388275 152.351028,379.291687 156.983398,378.309326 C180.082581,414.565857 209.214706,443.682983 248.230026,462.144287 C269.406036,472.164368 290.507263,473.543365 312.341705,464.086395 C346.582428,449.255981 373.584686,425.714081 395.775757,396.202179 C400.465912,389.964722 404.775787,383.441315 409.603912,377.125824 C413.355743,378.500793 416.887787,379.557617 420.120117,381.203094 C421.677643,381.996002 423.355469,383.716003 423.785217,385.333344 C424.884033,389.468445 425.313110,393.781494 426.010071,398.023376 z" opacity="1"/><path fill="#341B10" stroke="none" d="M137.889984,397.294830 C133.265793,409.774231 114.903114,414.435669 104.309448,405.673401 C96.273346,399.026581 93.136765,390.670868 95.956306,380.278717 C96.345627,378.843811 95.671616,376.180603 94.572418,375.430481 C85.881981,369.500183 81.502960,361.457520 83.411751,351.098969 C85.409454,340.257904 92.936821,334.355927 104.013008,332.071259 C104.929207,332.482758 105.273613,332.817108 105.692078,333.524658 C106.452118,335.766998 106.946083,337.735504 107.853539,339.490143 C117.828575,358.777557 127.868019,378.031677 137.889984,397.294830 z" opacity="1"/><path fill="#341B10" stroke="none" d="M460.792847,331.850159 C469.684753,333.806885 476.957031,337.798828 480.196289,347.022797 C484.115967,358.184296 481.260223,367.809906 471.474548,374.498566 C468.817444,376.314758 468.092010,377.719269 469.023560,380.886383 C472.384338,392.312897 466.768707,403.851562 456.000671,408.394653 C445.270264,412.921906 433.559387,408.886932 427.145782,397.838531 C428.775208,394.521851 430.456665,391.843384 432.088074,389.134735 C442.841187,371.281006 452.532104,352.909271 459.534790,332.990662 C460.085205,332.514679 460.439026,332.182434 460.792847,331.850159 z" opacity="1"/><path fill="#708B57" stroke="none" d="M105.618011,333.151459 C105.273613,332.817108 104.929207,332.482758 104.398987,331.996735 C99.066139,314.636383 93.903313,297.432404 88.796310,280.211853 C88.280640,278.472992 88.102051,276.634216 88.097031,274.511536 C93.393700,278.650116 99.026352,281.457764 105.897041,280.982788 C109.183914,280.755585 112.458511,280.350769 115.883339,280.389954 C117.892723,287.280029 119.475998,293.903381 121.680801,300.312927 C126.253265,313.605499 131.155792,326.784515 135.549896,340.033661 C134.535080,340.198212 133.766602,340.159515 133.270386,340.508240 C128.218567,344.058411 124.456223,342.630005 120.520752,338.233490 C116.720856,333.988403 111.369347,332.561523 105.618011,333.151459 z" opacity="1"/><path fill="#708B57" stroke="none" d="M460.833496,331.472717 C460.439026,332.182434 460.085205,332.514679 459.086182,332.960449 C454.509247,334.136353 449.281128,333.980164 446.906738,336.506287 C441.393707,342.371643 435.941742,343.381836 429.143555,339.654968 C435.916931,319.537567 442.653625,299.780853 449.766968,280.056580 C455.587769,281.555023 461.064636,282.415314 466.520782,280.275970 C469.825287,278.980255 473.041046,277.458191 476.296692,276.037811 C472.539368,290.297913 468.845184,304.575104 464.985504,318.807434 C463.856934,322.968964 462.257629,327.002838 460.833496,331.472717 z" opacity="1"/><path fill="#6A8452" stroke="none" d="M105.692078,333.524658 C111.369347,332.561523 116.720856,333.988403 120.520752,338.233490 C124.456223,342.630005 128.218567,344.058411 133.270386,340.508240 C133.766602,340.159515 134.535080,340.198212 135.747482,340.077911 C136.317780,340.098724 136.717194,340.161499 136.832062,340.501038 C143.247208,352.609009 149.547501,364.377380 155.943207,376.392273 C156.282516,377.102356 156.526398,377.565979 156.770264,378.029602 C152.351028,379.291687 147.872650,380.388275 143.553879,381.931549 C142.466278,382.320190 141.480057,384.035370 141.155853,385.319794 C140.226395,389.002106 139.660355,392.776184 138.885773,396.948914 C138.820099,397.383636 138.357803,397.310547 138.123901,397.302673 C127.868019,378.031677 117.828575,358.777557 107.853539,339.490143 C106.946083,337.735504 106.452118,335.766998 105.692078,333.524658 z" opacity="1"/><path fill="#6A8552" stroke="none" d="M429.106934,340.015625 C435.941742,343.381836 441.393707,342.371643 446.906738,336.506287 C449.281128,333.980164 454.509247,334.136353 458.889526,333.104156 C452.532104,352.909271 442.841187,371.281006 432.088074,389.134735 C430.456665,391.843384 428.775208,394.521851 426.981689,397.526855 C426.846497,397.839447 426.427856,397.929596 426.218933,397.976501 C425.313110,393.781494 424.884033,389.468445 423.785217,385.333344 C423.355469,383.716003 421.677643,381.996002 420.120117,381.203094 C416.887787,379.557617 413.355743,378.500793 409.592682,376.915039 C409.238434,376.628113 409.206360,376.207520 409.440063,375.962799 C415.882446,363.870544 422.091156,352.023010 428.503296,340.143982 C428.706757,340.112488 429.106934,340.015625 429.106934,340.015625 z" opacity="1"/><path fill="#6A8552" stroke="none" d="M115.738670,280.026428 C112.458511,280.350769 109.183914,280.755585 105.897041,280.982788 C99.026352,281.457764 93.393700,278.650116 88.077507,274.091248 C86.158417,266.615479 84.588852,259.229675 83.021645,251.419159 C85.172630,248.341843 86.873344,245.047409 89.563148,243.170334 C95.154999,239.268112 97.282097,235.369812 95.399422,228.033386 C93.809761,221.838806 96.166992,215.177917 102.914474,211.092407 C103.460411,211.048889 103.870285,211.109329 103.894188,211.541443 C104.601013,217.892578 104.931808,223.878082 106.034172,229.717926 C109.100464,245.961884 112.487274,262.145325 115.735016,278.631805 C115.727928,279.282745 115.733299,279.654572 115.738670,280.026428 z" opacity="1"/><path fill="#6A8552" stroke="none" d="M476.547852,275.788208 C473.041046,277.458191 469.825287,278.980255 466.520782,280.275970 C461.064636,282.415314 455.587769,281.555023 449.681427,279.810486 C449.162567,279.368195 449.105865,279.204468 449.110291,278.657990 C455.686310,256.358215 459.135406,233.890671 461.414795,211.135986 C461.609009,211.093765 461.993347,210.992355 461.993347,210.992355 C467.459900,213.760529 471.476898,223.159637 469.494049,230.438263 C468.138458,235.414536 468.412781,238.544617 473.443878,241.351898 C476.682739,243.159164 478.807800,246.962555 481.780334,249.955002 C480.352051,258.538666 478.575531,267.038635 476.547852,275.788208 z" opacity="1"/><path fill="#B86551" stroke="none" d="M31.082378,30.392878 C32.680389,26.179861 35.536346,23.877045 39.595795,24.506512 C43.830265,25.163116 46.394665,28.265797 46.439747,32.555210 C46.500217,38.308750 49.010601,42.947880 51.532890,47.885330 C54.273796,53.250725 56.131439,59.140560 57.763275,64.972664 C58.792088,68.649605 52.884403,76.778908 48.824448,76.797920 C39.590832,76.841156 30.294979,76.480385 21.140753,75.345482 C16.310394,74.746628 16.010887,72.670326 18.867384,68.472588 C18.034393,67.350479 17.096931,66.208832 16.293720,64.979477 C14.795344,62.686131 14.986614,60.480320 17.966387,60.191593 C21.071884,59.890686 21.543348,58.220993 22.143505,55.731010 C22.795124,53.027515 23.758629,50.175411 25.381516,47.974632 C29.203169,42.792130 30.602179,36.992073 31.082378,30.392878 M28.247526,46.759476 C26.491388,50.852486 24.735250,54.945496 22.979115,59.038506 C23.513643,59.259048 24.048172,59.479595 24.582701,59.700138 C25.105373,58.401299 25.628046,57.102455 26.492846,54.953426 C27.017071,56.506123 27.326698,57.423203 27.851875,58.978714 C34.457588,44.190102 38.570564,43.560871 47.882927,54.178993 C48.065346,51.729702 48.852573,48.931236 48.337776,46.397285 C47.370449,41.635853 45.362545,37.089268 44.339775,32.334511 C43.585224,28.826668 41.940979,26.872757 38.409473,26.950863 C34.875885,27.029015 33.397717,29.089039 32.700043,32.587780 C31.782888,37.187183 30.042868,41.622501 28.247526,46.759476 M36.095554,70.160805 C37.137085,70.683830 38.178619,71.206856 39.870094,72.056259 C39.557499,69.276680 39.162476,67.633446 39.236599,66.011658 C39.367649,63.144176 38.116100,58.941502 43.834335,60.490040 C44.292507,60.614113 45.625381,59.175331 45.821053,58.299561 C46.499626,55.262455 43.197636,49.985687 40.165661,49.165886 C36.192543,48.091610 33.876255,50.372795 32.283356,53.575176 C30.635620,56.887806 30.275499,60.013638 33.091496,63.205307 C34.533295,64.839462 35.013931,67.321640 36.095554,70.160805 M51.278263,62.956406 C50.984005,61.122868 50.689743,59.289330 50.406841,57.526562 C47.444321,59.938160 44.859352,62.042416 41.354889,64.895172 C40.938286,70.477890 42.765781,74.432617 46.862213,74.934738 C50.837952,75.422066 53.730637,72.262924 55.238274,65.918327 C53.976898,65.148384 52.769161,64.411186 51.278263,62.956406 M33.317715,67.349037 C31.638689,65.006630 29.959661,62.664230 27.680563,59.484673 C25.786268,66.962250 21.351732,61.405327 18.307598,62.709126 C18.158169,66.222221 24.677420,68.173836 19.982189,72.122932 C28.719004,76.951698 33.289867,75.434891 33.317715,67.349037 z" opacity="1"/><path fill="#543D2B" stroke="none" d="M461.969177,210.540771 C461.993347,210.992355 461.609009,211.093765 461.319611,210.772400 C458.844055,205.270782 454.146637,204.679535 449.365936,203.683060 C449.886719,193.469543 450.377533,183.672882 451.124603,173.895798 C451.419830,170.032196 449.913940,168.262939 446.231201,167.218094 C393.399109,152.228424 340.599945,137.122772 287.786682,122.066658 C286.432922,121.680725 285.009277,121.539986 282.582489,121.094955 C282.582489,138.247665 282.582489,154.679596 282.145386,171.083252 C273.991302,171.912445 266.033112,171.868027 258.617249,173.851318 C248.927200,176.442810 239.666214,180.638687 229.886902,183.978439 C228.605499,183.571625 227.658295,183.122543 226.710098,183.120453 C207.107361,183.077362 187.504456,183.112900 167.901794,183.055954 C164.549561,183.046204 162.955109,184.408188 163.120285,187.814255 C163.213470,189.735657 163.137100,191.665268 163.137100,194.161591 C181.216644,194.161591 198.626144,194.161591 216.062393,194.408386 C216.142593,194.986877 216.130280,195.316101 215.585373,195.715302 C197.799088,195.883911 180.479630,195.980087 162.786163,196.014862 C160.258316,196.168259 158.104477,196.383041 155.617157,196.702332 C153.424484,198.213501 151.565308,199.620163 149.382355,201.313705 C148.712006,203.491852 148.090820,205.379456 148.065643,207.274994 C147.947372,216.175079 147.992905,225.077362 147.639023,233.840729 C143.062363,232.665863 140.982635,230.763229 140.709030,225.617538 C139.849655,209.455902 123.443413,199.637619 108.677246,206.072067 C106.715706,206.926804 105.455353,209.390656 103.870285,211.109329 C103.870285,211.109329 103.460411,211.048889 103.256310,211.014862 C102.305847,195.189819 101.673653,179.391953 100.723915,163.613174 C100.515495,160.150467 101.321693,158.712616 104.804054,157.725082 C160.729675,141.865891 216.672012,126.057480 272.432922,109.634445 C280.772369,107.178261 287.870544,108.356949 295.631104,110.600266 C350.356445,126.419510 405.125702,142.087372 459.922363,157.657822 C463.730133,158.739792 464.719543,160.187683 464.420624,164.233841 C463.292938,179.496613 462.723450,194.800629 461.969177,210.540771 z" opacity="1"/><path fill="#533C2A" stroke="none" d="M409.206360,376.207520 C409.206360,376.207520 409.238434,376.628113 409.249664,376.838898 C404.775787,383.441315 400.465912,389.964722 395.775757,396.202179 C373.584686,425.714081 346.582428,449.255981 312.341705,464.086395 C290.507263,473.543365 269.406036,472.164368 248.230026,462.144287 C209.214706,443.682983 180.082581,414.565857 156.983398,378.309326 C156.526398,377.565979 156.282516,377.102356 156.355469,376.371246 C157.655777,375.941162 158.698669,375.936554 159.613831,375.592316 C174.733643,369.904724 189.837967,364.175964 204.943100,358.449432 C205.716995,358.156036 206.467316,357.800476 207.602142,357.313629 C197.087189,346.815643 187.917725,336.947815 183.425232,323.888275 C186.893372,323.784271 189.927612,323.827393 193.030304,324.232849 C197.339233,334.998016 204.597183,343.224640 212.709320,350.625305 C217.209885,354.731110 222.763977,357.662476 227.504074,361.537994 C228.839020,362.629425 229.919266,365.532410 229.392654,366.975433 C228.874039,368.396515 226.261627,369.331604 224.391800,369.885254 C223.112122,370.264130 221.530716,369.624115 220.103592,369.442108 C219.744659,370.095734 219.316818,370.514893 219.310150,370.940674 C219.200882,377.922424 219.004532,384.907166 219.110489,391.886902 C219.259048,401.671112 223.991623,405.943665 233.776154,406.127350 C238.124435,406.208984 240.413315,404.571838 240.847549,400.368530 C241.273529,396.245087 242.973099,393.310699 247.496613,393.088379 C252.069656,392.863647 254.026230,395.939819 254.895813,399.760162 C256.136627,405.211517 260.009613,406.771576 264.866760,406.922668 C269.956879,407.081055 273.537384,404.693848 274.965454,399.783722 C276.108368,395.854065 278.396027,393.851410 282.583069,394.402985 C282.737732,414.189667 282.893555,433.513885 282.781830,452.836609 C282.756439,457.224396 284.411163,458.818787 288.422791,457.551727 C297.606598,454.651062 307.096283,452.349670 315.795105,448.353638 C339.688873,437.377472 358.967621,420.231750 375.687683,400.279266 C383.127106,391.401642 389.316071,381.476135 396.289307,372.003723 C396.506012,371.981232 396.939514,371.936920 397.194641,372.188904 C401.368622,373.696442 405.287506,374.951965 409.206360,376.207520 z" opacity="1"/><path fill="#533C2A" stroke="none" d="M115.883339,280.389954 C115.733299,279.654572 115.727928,279.282745 116.122177,278.551208 C118.836487,276.711548 121.661995,275.657227 123.338280,273.645355 C125.499397,271.051605 127.363892,270.958252 130.204971,272.075806 C141.759796,276.620911 153.377548,281.006714 164.990723,285.402039 C166.618530,286.018097 168.349792,286.360870 170.972809,287.092072 C170.606247,280.542999 170.287216,274.843262 170.415192,269.056763 C173.588074,269.044800 176.313980,269.119598 179.031738,269.571899 C179.036072,273.206482 179.048538,276.463531 178.915207,280.065369 C177.457138,282.641235 174.507187,285.232178 179.993057,286.369934 C180.350845,289.068085 180.706650,291.366180 180.600571,293.764954 C178.322449,293.883057 176.499832,293.809174 174.691238,293.935822 C170.165298,294.252655 165.645706,294.660431 161.041916,295.144348 C160.820190,295.510406 160.846786,295.761139 161.149872,296.466187 C161.193085,305.276886 161.126480,313.630554 161.001648,322.109253 C160.884964,322.511322 160.976318,322.748413 161.625763,323.105530 C165.697586,323.548279 169.361130,323.830963 172.935989,324.444885 C170.091019,326.134583 167.398590,327.646851 164.566711,328.823395 C155.310898,332.668640 146.004272,336.391541 136.717194,340.161499 C136.717194,340.161499 136.317780,340.098724 136.120209,340.054474 C131.155792,326.784515 126.253265,313.605499 121.680801,300.312927 C119.475998,293.903381 117.892723,287.280029 115.883339,280.389954 z" opacity="1"/><path fill="#543D2B" stroke="none" d="M449.049164,279.040771 C449.105865,279.204468 449.162567,279.368195 449.304810,279.778046 C442.653625,299.780853 435.916931,319.537567 429.143555,339.654968 C429.106934,340.015625 428.706757,340.112488 428.255890,339.853088 C424.091034,338.267273 420.377014,336.940826 416.707031,335.344940 C416.800751,334.711884 416.850464,334.348206 417.093842,333.682556 C425.869476,313.560028 433.352997,293.378296 437.610992,271.946655 C438.110229,271.541626 438.444824,271.271637 439.083069,271.162598 C442.607513,273.895966 445.828339,276.468384 449.049164,279.040771 z" opacity="1"/><path fill="#341B10" stroke="none" d="M136.832062,340.501038 C146.004272,336.391541 155.310898,332.668640 164.566711,328.823395 C167.398590,327.646851 170.091019,326.134583 173.377838,324.335083 C176.936020,323.941193 179.963669,323.988281 182.991333,324.035400 C187.917725,336.947815 197.087189,346.815643 207.602142,357.313629 C206.467316,357.800476 205.716995,358.156036 204.943100,358.449432 C189.837967,364.175964 174.733643,369.904724 159.613831,375.592316 C158.698669,375.936554 157.655777,375.941162 156.260040,376.124756 C149.547501,364.377380 143.247208,352.609009 136.832062,340.501038 z" opacity="1"/><path fill="#351D11" stroke="none" d="M416.663025,335.614349 C420.377014,336.940826 424.091034,338.267273 428.052429,339.884583 C422.091156,352.023010 415.882446,363.870544 409.440063,375.962799 C405.287506,374.951965 401.368622,373.696442 397.333984,371.874237 C403.699829,359.409851 410.181427,347.512115 416.663025,335.614349 z" opacity="1"/><path fill="#341B10" stroke="none" d="M169.968185,269.143524 C170.287216,274.843262 170.606247,280.542999 170.972809,287.092072 C168.349792,286.360870 166.618530,286.018097 164.990723,285.402039 C153.377548,281.006714 141.759796,276.620911 130.204971,272.075806 C127.363892,270.958252 125.499397,271.051605 123.338280,273.645355 C121.661995,275.657227 118.836487,276.711548 116.134644,278.272095 C112.487274,262.145325 109.100464,245.961884 106.034172,229.717926 C104.931808,223.878082 104.601013,217.892578 103.894188,211.541443 C105.455353,209.390656 106.715706,206.926804 108.677246,206.072067 C123.443413,199.637619 139.849655,209.455902 140.709030,225.617538 C140.982635,230.763229 143.062363,232.665863 147.957489,233.842621 C148.828918,233.974380 149.040955,233.966141 149.373138,234.175964 C149.493286,234.394028 149.331863,234.865082 149.057526,235.195862 C148.617813,244.204391 148.431732,252.881912 148.342926,261.560455 C148.338043,262.037537 149.142288,262.522919 149.726913,263.343475 C151.134277,267.679260 154.226898,268.865814 158.000015,268.952148 C161.988770,269.043457 165.978745,269.081970 169.968185,269.143524 z" opacity="1"/><path fill="#351D11" stroke="none" d="M449.110291,278.657990 C445.828339,276.468384 442.607513,273.895966 439.081848,270.737915 C439.039886,268.678680 439.332489,267.209686 439.561218,265.730835 C442.741028,245.172516 445.912018,224.612839 449.169800,204.091400 C449.254425,204.129272 449.438599,204.107758 449.438599,204.107758 C454.146637,204.679535 458.844055,205.270782 461.125397,210.814606 C459.135406,233.890671 455.686310,256.358215 449.110291,278.657990 z" opacity="1"/><path fill="#58412E" stroke="none" d="M28.452110,46.443924 C30.042868,41.622501 31.782888,37.187183 32.700043,32.587780 C33.397717,29.089039 34.875885,27.029015 38.409473,26.950863 C41.940979,26.872757 43.585224,28.826668 44.339775,32.334511 C45.362545,37.089268 47.370449,41.635853 48.337776,46.397285 C48.852573,48.931236 48.065346,51.729702 47.882927,54.178993 C38.570564,43.560871 34.457588,44.190102 27.851875,58.978714 C27.326698,57.423203 27.017071,56.506123 26.492846,54.953426 C25.628046,57.102455 25.105373,58.401299 24.582701,59.700138 C24.048172,59.479595 23.513643,59.259048 22.979115,59.038506 C24.735250,54.945496 26.491388,50.852486 28.452110,46.443924 M39.235004,42.640514 C41.343678,41.160454 45.110325,40.064240 42.665890,36.757694 C41.704185,35.456814 38.168633,35.855019 35.813412,35.901070 C35.013935,35.916702 33.481312,37.736076 33.569729,37.867760 C34.614582,39.423973 35.869251,40.848217 37.154331,42.227428 C37.444439,42.538792 38.063885,42.543289 39.235004,42.640514 z" opacity="1"/><path fill="#563F2C" stroke="none" d="M36.012260,69.790680 C35.013931,67.321640 34.533295,64.839462 33.091496,63.205307 C30.275499,60.013638 30.635620,56.887806 32.283356,53.575176 C33.876255,50.372795 36.192543,48.091610 40.165661,49.165886 C43.197636,49.985687 46.499626,55.262455 45.821053,58.299561 C45.625381,59.175331 44.292507,60.614113 43.834335,60.490040 C38.116100,58.941502 39.367649,63.144176 39.236599,66.011658 C39.162476,67.633446 39.557499,69.276680 39.870094,72.056259 C38.178619,71.206856 37.137085,70.683830 36.012260,69.790680 z" opacity="1"/><path fill="#58412E" stroke="none" d="M51.419846,63.315197 C52.769161,64.411186 53.976898,65.148384 55.238274,65.918327 C53.730637,72.262924 50.837952,75.422066 46.862213,74.934738 C42.765781,74.432617 40.938286,70.477890 41.354889,64.895172 C44.859352,62.042416 47.444321,59.938160 50.406841,57.526562 C50.689743,59.289330 50.984005,61.122868 51.419846,63.315197 z" opacity="1"/><path fill="#563F2C" stroke="none" d="M33.445580,67.699318 C33.289867,75.434891 28.719004,76.951698 19.982189,72.122932 C24.677420,68.173836 18.158169,66.222221 18.307598,62.709126 C21.351732,61.405327 25.786268,66.962250 27.680563,59.484673 C29.959661,62.664230 31.638689,65.006630 33.445580,67.699318 z" opacity="1"/><path fill="#341B10" stroke="none" d="M282.487274,393.940002 C278.396027,393.851410 276.108368,395.854065 274.965454,399.783722 C273.537384,404.693848 269.956879,407.081055 264.866760,406.922668 C260.009613,406.771576 256.136627,405.211517 254.895813,399.760162 C254.026230,395.939819 252.069656,392.863647 247.496613,393.088379 C242.973099,393.310699 241.273529,396.245087 240.847549,400.368530 C240.413315,404.571838 238.124435,406.208984 233.776154,406.127350 C223.991623,405.943665 219.259048,401.671112 219.110489,391.886902 C219.004532,384.907166 219.200882,377.922424 219.310150,370.940674 C219.316818,370.514893 219.744659,370.095734 220.103592,369.442108 C221.530716,369.624115 223.112122,370.264130 224.391800,369.885254 C226.261627,369.331604 228.874039,368.396515 229.392654,366.975433 C229.919266,365.532410 228.839020,362.629425 227.504074,361.537994 C222.763977,357.662476 217.209885,354.731110 212.709320,350.625305 C204.597183,343.224640 197.339233,334.998016 193.492584,324.133514 C207.893066,323.691071 221.899719,323.710266 236.054596,324.226257 C236.327316,325.045502 236.451843,325.367950 236.347626,325.923401 C235.760223,326.501465 235.378052,326.825378 235.046417,327.194641 C228.143173,334.881195 228.406952,344.855988 235.670532,351.023712 C242.286026,356.641144 252.486130,355.725403 257.967377,349.022003 C264.075348,341.552094 262.526611,332.076019 254.359802,325.468231 C253.223083,324.548523 252.951660,322.559387 252.604263,320.977203 C266.697845,313.617065 274.099609,295.303162 268.764709,280.906342 C268.144470,279.232605 265.643829,277.418121 263.818970,277.181732 C257.772400,276.398468 251.636200,276.307343 245.436569,275.548706 C244.843048,268.884735 244.347351,262.622803 243.893372,256.014923 C243.962494,255.205338 243.989899,254.741684 244.378525,254.178223 C245.669586,253.762970 246.620651,253.498810 247.526062,253.124298 C258.760712,248.477234 264.031342,237.584900 260.421539,226.507751 C256.813293,215.435394 246.113693,209.847015 234.233582,212.780228 C233.174484,213.041733 232.033737,212.972488 230.701950,212.634735 C230.472992,206.818756 230.472992,201.424881 230.472992,195.642868 C225.313141,195.642868 220.682678,195.642868 216.052216,195.642868 C216.130280,195.316101 216.142593,194.986877 216.520508,194.331390 C221.336990,194.007568 225.722107,194.007568 230.692337,194.007568 C230.514816,190.295349 230.367722,187.219833 230.220642,184.144318 C239.666214,180.638687 248.927200,176.442810 258.617249,173.851318 C266.033112,171.868027 273.991302,171.912445 282.228027,171.093994 C282.747833,171.133011 282.898712,171.061996 282.853119,171.523544 C282.794617,222.477524 282.787628,272.969971 282.750916,323.462402 C282.749115,325.950256 282.487610,328.437897 282.007141,330.931519 C275.355927,331.428284 272.827332,336.951843 269.148499,340.725616 C265.450073,344.519501 265.708252,350.877075 268.869446,354.397156 C272.071625,357.962860 275.793823,358.015198 281.272003,354.605194 C281.681427,354.350342 282.204559,354.278168 282.718445,354.435730 C282.831940,355.167664 282.901886,355.584930 282.904022,356.466797 C282.850952,368.949036 282.865723,380.966644 282.759491,393.213867 C282.588104,393.608978 282.537689,393.774506 282.487274,393.940002 M240.474976,210.102478 C241.614273,210.102478 242.753571,210.102478 243.842392,210.102478 C245.968597,199.895584 241.877228,194.613113 232.360657,197.425156 C232.360657,199.223831 232.360657,201.028763 232.360657,203.015396 C234.011505,203.343781 235.540421,203.647903 237.069336,203.952042 C236.800858,204.223724 236.532379,204.495407 236.263901,204.767090 C237.371414,206.543686 238.478928,208.320297 240.474976,210.102478 z" opacity="1"/><path fill="#718C58" stroke="none" d="M282.665161,171.122284 C282.582489,154.679596 282.582489,138.247665 282.582489,121.094955 C285.009277,121.539986 286.432922,121.680725 287.786682,122.066658 C340.599945,137.122772 393.399109,152.228424 446.231201,167.218094 C449.913940,168.262939 451.419830,170.032196 451.124603,173.895798 C450.377533,183.672882 449.886719,193.469543 449.365936,203.683060 C449.438599,204.107758 449.254425,204.129272 448.730682,204.077393 C439.589264,203.853073 432.990875,207.465240 427.946533,214.411423 C426.819946,215.962738 424.734344,216.817581 423.028656,217.540619 C422.618439,200.940735 420.925476,199.341949 404.597382,199.290329 C386.665283,199.233643 368.733459,199.092621 350.793579,198.592590 C349.864868,196.907806 349.174164,195.335938 347.989014,194.371979 C329.042786,178.961990 307.458130,170.837662 282.898712,171.061996 C282.898712,171.061996 282.747833,171.133011 282.665161,171.122284 z" opacity="1"/><path fill="#E6D5A3" stroke="none" d="M215.585373,195.715302 C220.682678,195.642868 225.313141,195.642868 230.472992,195.642868 C230.472992,201.424881 230.472992,206.818756 230.738785,212.617554 C231.004578,213.022461 231.064743,212.967819 230.769348,212.711914 C229.953979,212.976776 229.433990,213.497543 228.950912,214.000061 C228.987823,213.981842 229.046844,213.924454 228.655273,213.919601 C228.159439,214.297821 228.055191,214.680908 227.985306,215.047134 C228.019653,215.030289 228.074570,214.977005 227.804047,214.673767 C226.998322,214.914902 226.463150,215.459244 225.959198,215.990784 C225.990433,215.977951 226.037674,215.929703 225.691971,215.920090 C225.211838,216.287125 225.077408,216.663757 224.972076,217.020844 C225.001160,217.001282 225.039566,216.942642 224.686111,216.881927 C224.202698,217.225937 224.072739,217.630661 223.963348,218.023560 C223.983948,218.011703 224.000977,217.967346 223.640610,217.853241 C221.852448,216.095703 220.424637,214.452255 218.494385,212.230469 C218.151413,214.266922 217.784286,216.446762 217.382904,218.829987 C218.600296,219.000275 219.690994,219.152847 220.746597,219.300507 C220.833771,220.638901 220.913147,221.857635 221.012833,223.054596 C221.033142,223.032822 221.054794,222.977341 220.825378,222.582123 C219.357880,223.854935 217.413864,225.380905 217.043091,227.223465 C216.450409,230.168747 216.522903,233.390762 217.044952,236.367645 C217.397964,238.380615 219.005600,240.173553 220.035339,242.032593 C220.018616,242.000275 219.965225,241.950851 219.684784,242.236420 C219.614395,243.009521 219.824448,243.497086 219.860992,244.318481 C216.824051,246.006439 215.525955,248.430740 217.428635,250.939941 C219.343262,253.464905 221.348816,252.073792 222.701843,249.655060 C222.798904,249.481537 224.070587,249.965073 224.924072,250.368790 C225.507172,250.751938 225.962326,250.909393 226.590332,251.361679 C227.180023,251.791885 227.596878,251.927277 227.995575,252.040802 C227.977417,252.018936 227.925583,251.995651 228.043869,252.320251 C228.793167,252.780258 229.424179,252.915680 230.028778,253.029388 C230.002365,253.007706 229.937134,252.987320 229.986298,253.387573 C230.110626,254.550430 230.185776,255.313049 229.776031,256.099365 C210.222122,256.192474 191.153137,256.261841 171.651901,256.200439 C168.553726,255.964905 165.887787,255.860153 163.187531,255.304367 C163.088547,249.574966 163.023865,244.296585 163.051498,238.556274 C163.080231,226.721588 163.016647,215.348831 162.992615,203.736908 C163.032181,203.497711 162.972839,203.016479 163.066956,202.590881 C163.160782,200.135605 163.160492,198.105942 163.160187,196.076263 C180.479630,195.980087 197.799088,195.883911 215.585373,195.715302 M199.317337,229.280319 C200.806213,228.906693 202.700500,228.940979 203.636353,228.010895 C204.225296,227.425583 203.682907,225.229248 203.055756,224.078354 C202.705276,223.435165 201.144791,223.451340 200.129578,223.170395 C199.684540,225.016785 199.239502,226.863174 199.317337,229.280319 M182.140717,245.533600 C179.723969,247.547821 179.608429,249.838852 182.011230,251.702774 C182.616043,252.171936 185.300186,251.344147 185.605621,250.558868 C186.559540,248.106247 186.593079,245.518951 182.140717,245.533600 M198.241791,215.436081 C199.312653,216.606140 200.383499,217.776199 201.454361,218.946259 C202.310913,217.897324 203.750015,216.906693 203.862442,215.783279 C203.978104,214.627716 202.799484,213.342621 202.187210,212.114212 C200.892044,212.966400 199.596863,213.818573 198.241791,215.436081 M199.365128,207.119263 C200.776093,206.835266 203.045151,206.946335 203.399826,206.176010 C203.951782,204.977158 203.466949,203.063766 202.868332,201.695206 C202.645157,201.184967 199.993790,201.074890 199.935333,201.257599 C199.388763,202.966217 199.165222,204.778168 199.365128,207.119263 M219.289673,200.813599 C218.542145,201.368469 217.217606,201.871307 217.161911,202.488586 C217.027786,203.975571 217.173477,205.684738 217.855820,206.955597 C218.145981,207.496017 220.819595,207.607651 221.091751,207.142609 C221.821991,205.894913 222.081375,204.222488 222.030380,202.735809 C222.008148,202.087494 220.770233,201.480896 219.289673,200.813599 M200.004501,245.444290 C199.733551,247.429764 199.462616,249.415222 199.191666,251.400696 C200.521515,251.358948 201.851349,251.317200 203.181198,251.275452 C203.101349,249.502502 203.147491,247.707397 202.842941,245.973938 C202.776321,245.594742 201.459045,245.435303 200.004501,245.444290 M209.560944,212.059738 C207.044556,213.939011 206.897049,216.257538 209.092163,218.215103 C209.694183,218.751999 212.573517,218.079468 212.941193,217.284012 C214.064697,214.853333 213.939575,212.361664 209.560944,212.059738 M190.293106,239.475357 C191.590073,240.123184 192.887024,240.771011 194.550720,241.602020 C193.661377,238.424362 193.088409,236.377106 192.449097,234.092850 C189.467300,234.978607 189.371490,236.677750 190.293106,239.475357 M172.120468,226.228088 C172.283188,227.452576 172.445908,228.677063 172.631454,230.073364 C173.938965,230.000900 175.221008,229.929825 176.502502,229.858795 C175.770065,227.466187 175.109344,225.307831 174.270981,222.569199 C173.215103,223.843384 172.525284,224.675842 172.120468,226.228088 M173.126343,234.696671 C172.761673,236.733170 172.397003,238.769669 171.962814,241.194366 C173.894409,241.021393 175.233032,240.901535 176.768250,240.764069 C175.651947,238.347443 174.724991,236.340744 173.126343,234.696671 z" opacity="1"/><path fill="#EAD9A6" stroke="none" d="M149.331863,234.865082 C149.331863,234.865082 149.493286,234.394028 149.503189,233.725754 C149.577438,222.380600 149.641785,211.703705 149.706131,201.026825 C151.565308,199.620163 153.424484,198.213501 156.070984,196.776276 C158.273926,196.876648 159.689545,197.007614 160.991562,197.128082 C160.991562,199.376999 160.991562,201.149094 160.991562,202.845535 C159.302689,203.268417 157.908020,203.617615 156.587387,203.948288 C156.587387,215.533493 156.587387,226.837219 156.520203,238.595398 C156.453003,245.295288 156.453003,251.540710 156.453003,257.967529 C159.041138,257.967529 161.011353,257.967529 163.428391,258.048401 C166.594666,258.049042 169.314148,257.968872 172.495880,257.956360 C192.310745,257.986115 211.663345,257.948242 231.429459,257.992859 C232.528259,261.508545 233.213547,264.941711 234.057648,269.170532 C218.513947,269.170532 204.254440,269.170532 189.545410,269.080078 C185.743881,269.057861 182.391876,269.126099 179.039871,269.194366 C176.313980,269.119598 173.588074,269.044800 170.415192,269.056763 C165.978745,269.081970 161.988770,269.043457 158.000015,268.952148 C154.226898,268.865814 151.134277,267.679260 149.778671,262.877136 C149.559570,253.002899 149.445724,243.933990 149.331863,234.865082 z" opacity="1"/><path fill="#E8D7A5" stroke="none" d="M229.886902,183.978439 C230.367722,187.219833 230.514816,190.295349 230.692337,194.007568 C225.722107,194.007568 221.336990,194.007568 216.493759,194.084579 C198.626144,194.161591 181.216644,194.161591 163.137100,194.161591 C163.137100,191.665268 163.213470,189.735657 163.120285,187.814255 C162.955109,184.408188 164.549561,183.046204 167.901794,183.055954 C187.504456,183.112900 207.107361,183.077362 226.710098,183.120453 C227.658295,183.122543 228.605499,183.571625 229.886902,183.978439 M184.989685,191.144073 C186.460770,190.659668 188.040497,190.352417 189.325317,189.564362 C189.640411,189.371094 189.334045,187.141647 188.703201,186.677231 C187.833221,186.036774 185.444717,185.798218 185.338669,186.056793 C184.754929,187.480194 184.668442,189.107513 184.989685,191.144073 M178.446869,191.645645 C179.545837,190.523758 180.806900,189.502808 181.617447,188.201294 C181.795975,187.914658 180.463669,186.071167 179.670670,185.947479 C178.621582,185.783844 176.427689,186.677536 176.450119,186.994980 C176.557114,188.509766 177.247910,189.983322 178.446869,191.645645 M171.926666,185.827179 C170.574219,186.603943 169.076935,187.230499 167.987869,188.280472 C167.761948,188.498291 168.818100,190.641388 169.719421,191.234039 C170.374573,191.664825 172.593872,191.151031 172.654617,190.803177 C172.916763,189.302490 172.640213,187.707703 171.926666,185.827179 z" opacity="1"/><path fill="#654F39" stroke="none" d="M156.587387,238.140945 C156.587387,226.837219 156.587387,215.533493 156.587387,203.948288 C157.908020,203.617615 159.302689,203.268417 160.991562,202.845535 C160.991562,201.149094 160.991562,199.376999 160.991562,197.128082 C159.689545,197.007614 158.273926,196.876648 156.404465,196.671753 C158.104477,196.383041 160.258316,196.168259 162.786163,196.014862 C163.160492,198.105942 163.160782,200.135605 162.980988,202.704254 C162.660431,203.498062 162.711151,203.742355 162.953064,203.976089 C163.016647,215.348831 163.080231,226.721588 162.688141,238.509705 C160.350769,238.663696 158.469070,238.402313 156.587387,238.140945 z" opacity="1"/><path fill="#3C2C1A" stroke="none" d="M149.382355,201.313705 C149.641785,211.703705 149.577438,222.380600 149.383041,233.507690 C149.040955,233.966141 148.828918,233.974380 148.298416,233.980743 C147.992905,225.077362 147.947372,216.175079 148.065643,207.274994 C148.090820,205.379456 148.712006,203.491852 149.382355,201.313705 z" opacity="1"/><path fill="#718B58" stroke="none" d="M282.583069,394.402985 C282.537689,393.774506 282.588104,393.608978 283.140015,393.238953 C287.839844,393.540710 289.928894,396.084808 291.083527,400.025543 C292.407013,404.542389 296.714935,407.327515 301.484314,406.892517 C306.095856,406.471954 309.887604,404.609283 310.975220,399.549225 C311.885651,395.313416 314.698853,392.980499 318.721832,393.244385 C322.628662,393.500732 324.421967,396.455933 325.171265,400.362488 C325.527069,402.217407 327.029022,404.767517 328.602417,405.319763 C336.553497,408.110443 347.398804,402.551483 347.036987,394.090515 C346.802277,388.601776 347.001740,383.094666 346.998901,377.595764 C346.995300,370.605621 346.969604,370.769806 340.275726,369.860718 C338.615448,369.635223 336.487732,368.284943 335.812286,366.863617 C335.300507,365.786591 336.289612,363.203094 337.419434,362.284607 C341.144318,359.256256 345.236603,356.679871 349.528259,354.066223 C353.571716,354.906708 357.274750,355.610931 361.014038,356.665833 C362.104370,358.177917 362.940369,359.914490 364.247009,360.409943 C374.805573,364.413788 385.452576,368.184418 396.072571,372.026215 C389.316071,381.476135 383.127106,391.401642 375.687683,400.279266 C358.967621,420.231750 339.688873,437.377472 315.795105,448.353638 C307.096283,452.349670 297.606598,454.651062 288.422791,457.551727 C284.411163,458.818787 282.756439,457.224396 282.781830,452.836609 C282.893555,433.513885 282.737732,414.189667 282.583069,394.402985 z" opacity="1"/><path fill="#6A8452" stroke="none" d="M396.289307,372.003723 C385.452576,368.184418 374.805573,364.413788 364.247009,360.409943 C362.940369,359.914490 362.104370,358.177917 361.432739,356.580475 C368.626160,356.472626 372.889465,352.772400 376.290131,347.346710 C377.938019,344.717590 380.189758,342.468994 382.145630,340.030121 C384.038269,337.670105 385.793182,337.750031 387.863953,339.958832 C389.330994,341.523682 391.187988,342.722931 392.870941,344.085358 C393.363800,343.501251 393.856689,342.917145 394.349579,342.333038 C391.601929,339.635101 389.180420,336.366333 385.946808,334.519073 C384.646362,333.776123 381.564423,336.151642 379.300903,337.104614 C378.483582,332.155487 379.279175,330.812958 385.931641,326.189484 C388.471222,328.260193 391.069000,330.378387 393.666809,332.496582 C394.005615,332.135193 394.344421,331.773773 394.683228,331.412354 C394.351959,330.525299 394.020721,329.638245 393.918091,328.482483 C396.021515,328.441345 397.958923,328.441864 399.759583,328.938354 C405.500488,330.521210 411.190491,332.288513 416.900177,333.984558 C416.850464,334.348206 416.800751,334.711884 416.707031,335.344940 C410.181427,347.512115 403.699829,359.409851 397.078857,371.622253 C396.939514,371.936920 396.506012,371.981232 396.289307,372.003723 z" opacity="1"/><path fill="#EAD9A6" stroke="none" d="M235.906387,323.729462 C221.899719,323.710266 207.893066,323.691071 193.424133,323.771179 C189.927612,323.827393 186.893372,323.784271 183.425232,323.888275 C179.963669,323.988281 176.936020,323.941193 173.466522,324.003845 C169.361130,323.830963 165.697586,323.548279 161.634308,322.857391 C161.234558,322.449188 161.059891,321.984253 161.059891,321.984253 C161.126480,313.630554 161.193085,305.276886 161.218124,296.225891 C161.176559,295.528595 161.123566,295.031708 161.123566,295.031708 C165.645706,294.660431 170.165298,294.252655 174.691238,293.935822 C176.499832,293.809174 178.322449,293.883057 181.055023,293.867798 C188.626648,293.829956 195.281937,293.789948 202.400162,293.851410 C213.781754,293.952850 224.700409,293.952850 235.906387,293.952850 C235.906387,304.264893 235.906387,313.997192 235.906387,323.729462 M189.969910,320.938965 C198.972839,320.939178 207.975754,320.939392 217.887833,321.191803 C222.963165,321.191803 228.038483,321.191803 233.649551,321.191803 C233.649551,313.225769 233.745514,305.977600 233.518753,298.739532 C233.492661,297.906830 231.672882,296.442902 230.675629,296.435089 C221.416367,296.362610 212.155106,296.545319 201.994797,296.432434 C195.369705,296.502838 188.744614,296.573273 181.195023,296.406036 C175.464828,296.406036 169.734634,296.406036 164.015427,296.406036 C164.015427,304.915314 164.015427,312.755707 164.015427,320.705078 C172.627991,320.705078 180.847198,320.705078 189.969910,320.938965 z" opacity="1"/><path fill="#E6D5A3" stroke="none" d="M179.991089,285.969879 C174.507187,285.232178 177.457138,282.641235 179.239975,279.947876 C184.673645,278.122498 188.766159,275.771759 190.566544,270.403564 C193.168762,270.522766 195.342407,270.748291 197.472336,270.535767 C201.609711,270.122864 205.207428,270.510590 206.935730,275.471802 C208.652420,276.596527 210.151016,277.537994 211.768661,278.179230 C215.036575,279.474609 217.460526,281.244659 216.893051,285.988861 C212.153717,285.988861 207.578720,285.988861 202.544281,285.887878 C194.720261,285.847900 187.355667,285.908905 179.991089,285.969879 z" opacity="1"/><path fill="#341B10" stroke="none" d="M179.993057,286.369934 C187.355667,285.908905 194.720261,285.847900 202.480103,286.271667 C202.562653,289.087646 202.249954,291.418793 201.937241,293.749969 C195.281937,293.789948 188.626648,293.829956 181.516907,293.767090 C180.706650,291.366180 180.350845,289.068085 179.993057,286.369934 z" opacity="1"/><path fill="#362013" stroke="none" d="M190.118210,270.311920 C188.766159,275.771759 184.673645,278.122498 179.385788,279.603088 C179.048538,276.463531 179.036072,273.206482 179.031738,269.571899 C182.391876,269.126099 185.743881,269.057861 189.569519,269.366150 C190.068176,269.932404 190.093201,270.122162 190.118210,270.311920 z" opacity="1"/><path fill="#3C2C1A" stroke="none" d="M161.001648,322.109253 C161.059891,321.984253 161.234558,322.449188 161.226013,322.697327 C160.976318,322.748413 160.884964,322.511322 161.001648,322.109253 z" opacity="1"/><path fill="#3C2C1A" stroke="none" d="M161.041916,295.144348 C161.123566,295.031708 161.176559,295.528595 161.108307,295.768921 C160.846786,295.761139 160.820190,295.510406 161.041916,295.144348 z" opacity="1"/><path fill="#708B57" stroke="none" d="M417.093842,333.682556 C411.190491,332.288513 405.500488,330.521210 399.759583,328.938354 C397.958923,328.441864 396.021515,328.441345 393.632446,328.268250 C386.309631,322.172638 386.309631,322.172638 379.152618,326.266022 C378.992798,325.234406 378.402740,324.025269 378.780426,323.420319 C380.549438,320.586761 382.347900,317.670654 384.727386,315.405426 C385.196991,314.958405 388.289398,317.214569 390.137207,318.284668 C391.475586,319.059814 392.756042,319.935120 394.062317,320.765747 C394.418365,320.325348 394.774384,319.884949 395.130432,319.444550 C393.431427,317.562775 391.616211,315.771851 390.058624,313.779510 C387.214447,310.141388 384.524445,309.472107 381.343628,313.462952 C380.761322,314.193542 379.051727,314.025665 378.027802,313.932434 C384.449951,299.518463 386.161194,284.639771 386.456604,269.363342 C389.597046,269.343048 392.292694,269.391083 394.990051,269.870941 C394.766144,273.778839 394.695618,277.273651 394.277283,280.726349 C393.699524,285.494293 395.358826,287.019928 399.929413,285.402710 C403.526764,284.129822 406.995789,282.492798 410.597748,281.234863 C419.524109,278.117462 428.493958,275.124573 437.446320,272.081665 C433.352997,293.378296 425.869476,313.560028 417.093842,333.682556 z" opacity="1"/><path fill="#6B8653" stroke="none" d="M437.610992,271.946655 C428.493958,275.124573 419.524109,278.117462 410.597748,281.234863 C406.995789,282.492798 403.526764,284.129822 399.929413,285.402710 C395.358826,287.019928 393.699524,285.494293 394.277283,280.726349 C394.695618,277.273651 394.766144,273.778839 395.454102,269.795898 C400.398102,269.257690 404.879730,269.221252 409.361450,269.195984 C419.439850,269.139160 422.855377,265.774384 422.905914,255.831482 C422.970001,243.218689 423.029022,230.605865 423.090271,217.993073 C424.734344,216.817581 426.819946,215.962738 427.946533,214.411423 C432.990875,207.465240 439.589264,203.853073 448.646057,204.039520 C445.912018,224.612839 442.741028,245.172516 439.561218,265.730835 C439.332489,267.209686 439.039886,268.678680 438.778198,270.576965 C438.444824,271.271637 438.110229,271.541626 437.610992,271.946655 z" opacity="1"/><path fill="#331A0F" stroke="none" d="M149.057526,235.195862 C149.445724,243.933990 149.559570,253.002899 149.621658,262.538147 C149.142288,262.522919 148.338043,262.037537 148.342926,261.560455 C148.431732,252.881912 148.617813,244.204391 149.057526,235.195862 z" opacity="1"/><path fill="#B86551" stroke="none" d="M38.883369,42.664780 C38.063885,42.543289 37.444439,42.538792 37.154331,42.227428 C35.869251,40.848217 34.614582,39.423973 33.569729,37.867760 C33.481312,37.736076 35.013935,35.916702 35.813412,35.901070 C38.168633,35.855019 41.704185,35.456814 42.665890,36.757694 C45.110325,40.064240 41.343678,41.160454 38.883369,42.664780 z" opacity="1"/><path fill="#6B8653" stroke="none" d="M386.011749,269.431641 C386.161194,284.639771 384.449951,299.518463 377.796875,313.672943 C370.920288,309.445160 372.870239,300.478180 367.191681,295.940277 C368.949646,293.537354 370.481750,291.443115 372.013885,289.348907 C371.552612,288.915619 371.091339,288.482361 370.630066,288.049072 C368.127747,290.176544 365.625458,292.304047 363.088928,293.975891 C362.688843,290.887238 362.280182,288.259338 361.964600,285.620270 C360.619659,274.373535 357.154236,271.627716 345.893341,272.887726 C344.738861,273.016876 343.557831,272.899475 342.400055,273.010406 C328.353668,274.356476 314.298004,275.625488 300.280579,277.227509 C298.763062,277.400940 296.749817,279.267914 296.182007,280.799866 C289.506500,298.809570 301.876740,320.363068 320.866028,324.258942 C323.406647,324.780182 325.848053,325.784760 328.208130,326.862488 C327.122864,328.676147 326.164856,330.192841 325.206879,331.709503 C325.605713,332.071075 326.004578,332.432678 326.403412,332.794250 C327.704163,331.784698 328.992157,330.758118 330.308777,329.769714 C332.112030,328.415924 333.467987,325.084534 336.369598,327.795776 C339.017395,330.269867 342.967773,332.475494 340.790710,336.774658 C338.058685,335.834625 334.803772,333.713837 333.693573,334.525696 C330.701935,336.713562 326.990326,338.968140 326.737579,343.625641 C328.556763,343.031830 330.124481,342.162537 331.162445,340.868378 C333.779938,337.604858 336.077820,337.607788 338.647705,340.894806 C342.088867,345.296326 345.667938,349.589996 349.187836,353.929962 C345.236603,356.679871 341.144318,359.256256 337.419434,362.284607 C336.289612,363.203094 335.300507,365.786591 335.812286,366.863617 C336.487732,368.284943 338.615448,369.635223 340.275726,369.860718 C346.969604,370.769806 346.995300,370.605621 346.998901,377.595764 C347.001740,383.094666 346.802277,388.601776 347.036987,394.090515 C347.398804,402.551483 336.553497,408.110443 328.602417,405.319763 C327.029022,404.767517 325.527069,402.217407 325.171265,400.362488 C324.421967,396.455933 322.628662,393.500732 318.721832,393.244385 C314.698853,392.980499 311.885651,395.313416 310.975220,399.549225 C309.887604,404.609283 306.095856,406.471954 301.484314,406.892517 C296.714935,407.327515 292.407013,404.542389 291.083527,400.025543 C289.928894,396.084808 287.839844,393.540710 283.260986,393.009338 C282.865723,380.966644 282.850952,368.949036 283.316284,356.496521 C285.747986,356.370178 287.689880,356.830322 289.653229,356.956512 C294.101135,357.242371 297.015900,355.041809 297.864380,350.762299 C299.368927,343.173706 290.805237,331.946747 282.857849,330.965698 C282.688538,330.941956 282.347046,330.925659 282.347046,330.925659 C282.487610,328.437897 282.749115,325.950256 282.750916,323.462402 C282.787628,272.969971 282.794617,222.477524 282.853119,171.523544 C307.458130,170.837662 329.042786,178.961990 347.989014,194.371979 C349.174164,195.335938 349.864868,196.907806 350.358887,198.588287 C345.947937,199.077637 341.963013,199.152451 337.979706,199.278061 C328.459778,199.578232 325.284485,202.847412 325.259827,212.513458 C325.222534,227.133850 325.221405,241.754517 325.260345,256.374908 C325.286041,266.020721 328.469177,269.141815 338.176270,269.193542 C354.121399,269.278473 370.066589,269.352814 386.011749,269.431641 z" opacity="1"/><path fill="#58412E" stroke="none" d="M202.400162,293.851410 C202.249954,291.418793 202.562653,289.087646 202.939545,286.372681 C207.578720,285.988861 212.153717,285.988861 216.893051,285.988861 C217.460526,281.244659 215.036575,279.474609 211.768661,278.179230 C210.151016,277.537994 208.652420,276.596527 207.277649,275.263916 C210.927261,274.204712 214.395370,273.264893 217.871918,273.232483 C223.581177,273.179321 229.295914,273.714813 235.101685,274.385071 C235.479935,277.792175 235.724945,280.880463 239.741806,281.241882 C243.552139,281.584747 244.895370,279.130035 245.534378,275.950684 C251.636200,276.307343 257.772400,276.398468 263.818970,277.181732 C265.643829,277.418121 268.144470,279.232605 268.764709,280.906342 C274.099609,295.303162 266.697845,313.617065 252.520828,320.547668 C252.471863,315.677856 247.712463,310.348724 254.714218,307.081482 C253.474777,305.174103 252.520935,303.706238 251.637680,302.346985 C255.230194,296.684357 255.230194,296.684357 245.735657,289.264771 C239.587875,293.032257 239.585602,293.032257 239.581329,299.729034 C239.576874,306.714355 239.769409,313.708801 239.438843,320.678528 C239.357651,322.390564 237.576172,324.021942 236.576370,325.690369 C236.451843,325.367950 236.327316,325.045502 236.054596,324.226257 C235.906387,313.997192 235.906387,304.264893 235.906387,293.952850 C224.700409,293.952850 213.781754,293.952850 202.400162,293.851410 z" opacity="1"/><path fill="#E5D4A2" stroke="none" d="M230.967743,213.039658 C232.033737,212.972488 233.174484,213.041733 234.233582,212.780228 C246.113693,209.847015 256.813293,215.435394 260.421539,226.507751 C264.031342,237.584900 258.760712,248.477234 247.526062,253.124298 C246.620651,253.498810 245.669586,253.762970 243.922470,254.129456 C238.715836,253.782776 234.326492,253.385056 229.937134,252.987320 C229.937134,252.987320 230.002365,253.007706 230.076630,252.541260 C229.409134,252.048416 228.667358,252.022034 227.925583,251.995667 C227.925583,251.995651 227.977417,252.018936 228.365997,251.772583 C228.586624,251.271805 228.418686,251.017380 228.128387,250.491638 C227.360077,249.778046 226.714142,249.335739 225.834259,248.656372 C224.088486,246.576767 222.576660,244.734253 220.990051,242.598175 C220.598572,242.186722 220.281906,242.068787 219.965225,241.950851 C219.965225,241.950851 220.018616,242.000275 220.154236,241.619324 C218.321198,235.058197 218.829697,228.981812 221.054794,222.977341 C221.054794,222.977341 221.033142,223.032822 221.349030,222.909515 C222.443604,221.179932 223.222290,219.573639 224.000977,217.967346 C224.000977,217.967346 223.983948,218.011703 224.366058,218.221436 C224.845322,217.934982 224.942444,217.438812 225.039566,216.942642 C225.039566,216.942642 225.001160,217.001282 225.404648,217.179077 C225.884644,216.881165 225.961166,216.405426 226.037674,215.929703 C226.037674,215.929703 225.990433,215.977951 226.183121,216.374115 C226.942062,216.172531 227.508301,215.574753 228.074554,214.976990 C228.074570,214.977005 228.019653,215.030289 228.374741,215.073090 C228.835495,214.718750 228.941162,214.321594 229.046844,213.924454 C229.046844,213.924454 228.987823,213.981842 229.256821,214.287659 C230.038803,214.051605 230.551773,213.509720 231.064743,212.967819 C231.064743,212.967819 231.004578,213.022461 230.967743,213.039658 M255.488495,229.378464 C254.982391,228.152618 254.604385,226.853058 253.948608,225.713333 C250.655807,219.990402 245.712585,217.168335 239.067444,217.625824 C232.604813,218.070740 228.087067,221.496506 225.786621,227.393997 C223.494186,233.270905 224.490097,238.859421 228.741501,243.684814 C232.906006,248.411575 240.247604,250.050858 246.148834,247.621887 C252.817261,244.877136 256.125732,238.817764 255.488495,229.378464 z" opacity="1"/><path fill="#D0BE91" stroke="none" d="M236.347626,325.923401 C237.576172,324.021942 239.357651,322.390564 239.438843,320.678528 C239.769409,313.708801 239.576874,306.714355 239.581329,299.729034 C239.585602,293.032257 239.587875,293.032257 245.735657,289.264771 C255.230194,296.684357 255.230194,296.684357 251.637680,302.346985 C252.520935,303.706238 253.474777,305.174103 254.714218,307.081482 C247.712463,310.348724 252.471863,315.677856 252.196228,320.635742 C252.951660,322.559387 253.223083,324.548523 254.359802,325.468231 C262.526611,332.076019 264.075348,341.552094 257.967377,349.022003 C252.486130,355.725403 242.286026,356.641144 235.670532,351.023712 C228.406952,344.855988 228.143173,334.881195 235.046417,327.194641 C235.378052,326.825378 235.760223,326.501465 236.347626,325.923401 M247.156601,351.915070 C252.966415,351.025574 256.872589,347.859528 258.440338,342.147888 C259.794067,337.215942 258.256714,332.940735 254.729187,329.449890 C250.636551,325.399811 244.103516,324.772125 239.090302,327.704773 C233.996323,330.684601 231.666046,336.268646 233.025101,342.238800 C234.346207,348.042206 239.128387,351.539032 247.156601,351.915070 M249.272583,318.636200 C248.696091,314.435944 245.768616,310.029022 250.931747,306.329712 C246.801941,303.301147 248.731949,300.491547 251.017273,297.685486 C249.720245,296.502930 248.660706,295.487732 247.549088,294.533203 C244.854904,292.219818 242.648209,293.718231 242.537750,296.301575 C242.160217,305.130493 242.393082,313.985535 242.393082,323.703888 C245.546402,322.337952 249.670593,325.181488 249.272583,318.636200 z" opacity="1"/><path fill="#52442D" stroke="none" d="M282.674835,354.121063 C282.204559,354.278168 281.681427,354.350342 281.272003,354.605194 C275.793823,358.015198 272.071625,357.962860 268.869446,354.397156 C265.708252,350.877075 265.450073,344.519501 269.148499,340.725616 C272.827332,336.951843 275.355927,331.428284 282.007141,330.931519 C282.347046,330.925659 282.688538,330.941956 282.815948,331.433899 C282.853851,339.324219 282.764343,346.722656 282.674835,354.121063 z" opacity="1"/><path fill="#718C58" stroke="none" d="M282.718445,354.435730 C282.764343,346.722656 282.853851,339.324219 282.985229,331.457611 C290.805237,331.946747 299.368927,343.173706 297.864380,350.762299 C297.015900,355.041809 294.101135,357.242371 289.653229,356.956512 C287.689880,356.830322 285.747986,356.370178 283.384094,356.031921 C282.901886,355.584930 282.831940,355.167664 282.718445,354.435730 z" opacity="1"/><path fill="#E5D4A2" stroke="none" d="M245.436569,275.548706 C244.895370,279.130035 243.552139,281.584747 239.741806,281.241882 C235.724945,280.880463 235.479935,277.792175 235.189484,273.927856 C235.614090,267.446045 236.044235,261.804382 236.459290,256.360840 C239.909805,256.360840 241.880737,256.360840 243.851654,256.360840 C244.347351,262.622803 244.843048,268.884735 245.436569,275.548706 z" opacity="1"/><path fill="#3D2417" stroke="none" d="M243.893372,256.014923 C241.880737,256.360840 239.909805,256.360840 236.459290,256.360840 C236.044235,261.804382 235.614090,267.446045 235.096130,273.544891 C229.295914,273.714813 223.581177,273.179321 217.871918,273.232483 C214.395370,273.264893 210.927261,274.204712 207.113419,274.944824 C205.207428,270.510590 201.609711,270.122864 197.472336,270.535767 C195.342407,270.748291 193.168762,270.522766 190.566544,270.403564 C190.093201,270.122162 190.068176,269.932404 190.019043,269.456604 C204.254440,269.170532 218.513947,269.170532 234.057648,269.170532 C233.213547,264.941711 232.528259,261.508545 231.387558,257.743011 C230.708405,256.965637 230.484665,256.520630 230.260925,256.075653 C230.185776,255.313049 230.110626,254.550430 229.986298,253.387573 C234.326492,253.385056 238.715836,253.782776 243.561249,254.229263 C243.989899,254.741684 243.962494,255.205338 243.893372,256.014923 z" opacity="1"/><path fill="#E5D4A2" stroke="none" d="M240.030701,210.099701 C238.478928,208.320297 237.371414,206.543686 236.263901,204.767090 C236.532379,204.495407 236.800858,204.223724 237.069336,203.952042 C235.540421,203.647903 234.011505,203.343781 232.360657,203.015396 C232.360657,201.028763 232.360657,199.223831 232.360657,197.425156 C241.877228,194.613113 245.968597,199.895584 243.842392,210.102478 C242.753571,210.102478 241.614273,210.102478 240.030701,210.099701 z" opacity="1"/><path fill="#362013" stroke="none" d="M386.456604,269.363342 C370.066589,269.352814 354.121399,269.278473 338.176270,269.193542 C328.469177,269.141815 325.286041,266.020721 325.260345,256.374908 C325.221405,241.754517 325.222534,227.133850 325.259827,212.513458 C325.284485,202.847412 328.459778,199.578232 337.979706,199.278061 C341.963013,199.152451 345.947937,199.077637 350.366821,198.984039 C368.733459,199.092621 386.665283,199.233643 404.597382,199.290329 C420.925476,199.341949 422.618439,200.940735 423.028625,217.540619 C423.029022,230.605865 422.970001,243.218689 422.905914,255.831482 C422.855377,265.774384 419.439850,269.139160 409.361450,269.195984 C404.879730,269.221252 400.398102,269.257690 395.452362,269.364075 C392.292694,269.391083 389.597046,269.343048 386.456604,269.363342 M418.804108,217.543823 C418.624390,217.267075 418.370148,217.143005 417.107056,217.053268 C401.398743,217.196350 385.690460,217.339432 369.214844,217.191528 C357.066711,217.124924 344.917908,217.111633 332.770966,216.954453 C329.709442,216.914841 328.702026,218.209488 328.721924,221.131302 C328.805817,233.448853 328.660614,245.768539 328.812347,258.084808 C328.879730,263.553406 331.026794,265.580658 336.523468,265.717377 C342.845245,265.874634 349.173584,265.775391 355.499054,265.775452 C373.643341,265.775635 391.787903,265.826630 409.931793,265.738464 C417.320404,265.702576 419.040527,263.888092 419.058929,256.454498 C419.076599,249.301758 418.916260,242.148575 418.981354,234.069748 C418.954407,228.705338 418.927490,223.340927 418.804108,217.543823 z" opacity="1"/><path fill="#331A0F" stroke="none" d="M156.520203,238.595398 C158.469070,238.402313 160.350769,238.663696 162.595825,238.971649 C163.023865,244.296585 163.088547,249.574966 163.153824,255.673813 C163.096817,256.985382 163.039200,257.476440 162.981583,257.967529 C161.011353,257.967529 159.041138,257.967529 156.453003,257.967529 C156.453003,251.540710 156.453003,245.295288 156.520203,238.595398 z" opacity="1"/><path fill="#533C2A" stroke="none" d="M229.776031,256.099365 C230.484665,256.520630 230.708405,256.965637 230.974045,257.660461 C211.663345,257.948242 192.310745,257.986115 172.519318,257.697083 C172.081711,257.023865 172.082916,256.677551 172.084137,256.331238 C191.153137,256.261841 210.222122,256.192474 229.776031,256.099365 z" opacity="1"/><path fill="#563F2C" stroke="none" d="M221.064819,242.891724 C222.576660,244.734253 224.088486,246.576767 225.697815,248.932037 C225.462234,249.677551 225.129181,249.910324 224.796112,250.143097 C224.070587,249.965073 222.798904,249.481537 222.701843,249.655060 C221.348816,252.073792 219.343262,253.464905 217.428635,250.939941 C215.525955,248.430740 216.824051,246.006439 220.059113,244.163239 C220.642105,243.413330 220.853470,243.152527 221.064819,242.891724 z" opacity="1"/><path fill="#341B10" stroke="none" d="M220.825378,222.582123 C218.829697,228.981812 218.321198,235.058197 220.170959,241.651642 C219.005600,240.173553 217.397964,238.380615 217.044952,236.367645 C216.522903,233.390762 216.450409,230.168747 217.043091,227.223465 C217.413864,225.380905 219.357880,223.854935 220.825378,222.582123 z" opacity="1"/><path fill="#58412E" stroke="none" d="M199.055908,228.994934 C199.239502,226.863174 199.684540,225.016785 200.129578,223.170410 C201.144791,223.451340 202.705276,223.435165 203.055756,224.078354 C203.682907,225.229248 204.225296,227.425583 203.636353,228.010895 C202.700500,228.940979 200.806213,228.906693 199.055908,228.994934 z" opacity="1"/><path fill="#5F4934" stroke="none" d="M182.487244,245.387268 C186.593079,245.518951 186.559540,248.106247 185.605621,250.558868 C185.300186,251.344147 182.616043,252.171936 182.011230,251.702774 C179.608429,249.838852 179.723969,247.547821 182.487244,245.387268 z" opacity="1"/><path fill="#543D2B" stroke="none" d="M198.271744,215.053421 C199.596863,213.818573 200.892044,212.966400 202.187210,212.114212 C202.799484,213.342621 203.978104,214.627716 203.862442,215.783279 C203.750015,216.906693 202.310913,217.897324 201.454361,218.946259 C200.383499,217.776199 199.312653,216.606140 198.271744,215.053421 z" opacity="1"/><path fill="#725D44" stroke="none" d="M199.106659,206.839737 C199.165222,204.778168 199.388763,202.966217 199.935333,201.257599 C199.993790,201.074890 202.645157,201.184967 202.868332,201.695206 C203.466949,203.063766 203.951782,204.977158 203.399826,206.176010 C203.045151,206.946335 200.776093,206.835266 199.106659,206.839737 z" opacity="1"/><path fill="#58412E" stroke="none" d="M219.687042,200.834473 C220.770233,201.480896 222.008148,202.087494 222.030380,202.735809 C222.081375,204.222488 221.821991,205.894913 221.091751,207.142609 C220.819595,207.607651 218.145981,207.496017 217.855820,206.955597 C217.173477,205.684738 217.027786,203.975571 217.161911,202.488586 C217.217606,201.871307 218.542145,201.368469 219.687042,200.834473 z" opacity="1"/><path fill="#58412E" stroke="none" d="M200.361115,245.309479 C201.459045,245.435303 202.776321,245.594742 202.842941,245.973938 C203.147491,247.707397 203.101349,249.502502 203.181198,251.275452 C201.851349,251.317200 200.521515,251.358948 199.191666,251.400696 C199.462616,249.415222 199.733551,247.429764 200.361115,245.309479 z" opacity="1"/><path fill="#5F4934" stroke="none" d="M209.953049,211.972000 C213.939575,212.361664 214.064697,214.853333 212.941193,217.284012 C212.573517,218.079468 209.694183,218.751999 209.092163,218.215103 C206.897049,216.257538 207.044556,213.939011 209.953049,211.972000 z" opacity="1"/><path fill="#341B10" stroke="none" d="M223.640610,217.853241 C223.222290,219.573639 222.443604,221.179932 221.328705,222.931305 C220.913147,221.857635 220.833771,220.638901 220.746597,219.300507 C219.690994,219.152847 218.600296,219.000275 217.382904,218.829987 C217.784286,216.446762 218.151413,214.266922 218.494385,212.230469 C220.424637,214.452255 221.852448,216.095703 223.640610,217.853241 z" opacity="1"/><path fill="#563F2C" stroke="none" d="M190.540497,239.204498 C189.371490,236.677750 189.467300,234.978607 192.449097,234.092850 C193.088409,236.377106 193.661377,238.424362 194.550720,241.602020 C192.887024,240.771011 191.590073,240.123184 190.540497,239.204498 z" opacity="1"/><path fill="#725D44" stroke="none" d="M171.977966,225.868195 C172.525284,224.675842 173.215103,223.843384 174.270981,222.569199 C175.109344,225.307831 175.770065,227.466187 176.502502,229.858795 C175.221008,229.929825 173.938965,230.000900 172.631454,230.073364 C172.445908,228.677063 172.283188,227.452576 171.977966,225.868195 z" opacity="1"/><path fill="#725D44" stroke="none" d="M173.462189,234.515350 C174.724991,236.340744 175.651947,238.347443 176.768250,240.764069 C175.233032,240.901535 173.894409,241.021393 171.962814,241.194366 C172.397003,238.769669 172.761673,236.733170 173.462189,234.515350 z" opacity="1"/><path fill="#725D44" stroke="none" d="M171.651901,256.200439 C172.082916,256.677551 172.081711,257.023865 172.057068,257.629425 C169.314148,257.968872 166.594666,258.049042 163.428391,258.048401 C163.039200,257.476440 163.096817,256.985382 163.188141,256.124847 C165.887787,255.860153 168.553726,255.964905 171.651901,256.200439 z" opacity="1"/><path fill="#725D44" stroke="none" d="M224.924072,250.368805 C225.129181,249.910324 225.462234,249.677551 225.931763,249.169098 C226.714142,249.335739 227.360077,249.778046 227.665894,250.542435 C227.022995,250.931961 226.720230,250.999405 226.417480,251.066849 C225.962326,250.909393 225.507172,250.751938 224.924072,250.368805 z" opacity="1"/><path fill="#341B10" stroke="none" d="M230.769348,212.711914 C230.551773,213.509720 230.038803,214.051605 229.219910,214.305893 C229.433990,213.497543 229.953979,212.976776 230.769348,212.711914 z" opacity="1"/><path fill="#3D2417" stroke="none" d="M228.043869,252.320251 C228.667358,252.022034 229.409134,252.048416 230.103058,252.562943 C229.424179,252.915680 228.793167,252.780258 228.043869,252.320251 z" opacity="1"/><path fill="#341B10" stroke="none" d="M220.990036,242.598175 C220.853470,243.152527 220.642105,243.413330 220.232635,243.829376 C219.824448,243.497086 219.614395,243.009521 219.684784,242.236420 C220.281906,242.068787 220.598572,242.186722 220.990036,242.598175 z" opacity="1"/><path fill="#341B10" stroke="none" d="M227.804031,214.673767 C227.508301,215.574753 226.942062,216.172531 226.151886,216.386948 C226.463150,215.459244 226.998322,214.914902 227.804031,214.673767 z" opacity="1"/><path fill="#3C2C1A" stroke="none" d="M162.992615,203.736908 C162.711151,203.742355 162.660431,203.498062 162.886856,203.129852 C162.972839,203.016479 163.032181,203.497711 162.992615,203.736908 z" opacity="1"/><path fill="#341B10" stroke="none" d="M228.655273,213.919601 C228.941162,214.321594 228.835495,214.718750 228.340393,215.089935 C228.055191,214.680908 228.159439,214.297821 228.655273,213.919601 z" opacity="1"/><path fill="#3D2417" stroke="none" d="M226.590332,251.361679 C226.720230,250.999405 227.022995,250.931961 227.788269,250.813721 C228.418686,251.017380 228.586624,251.271805 228.384155,251.794449 C227.596878,251.927277 227.180023,251.791885 226.590332,251.361679 z" opacity="1"/><path fill="#341B10" stroke="none" d="M225.691971,215.920090 C225.961166,216.405426 225.884644,216.881165 225.375549,217.198639 C225.077408,216.663757 225.211838,216.287125 225.691971,215.920090 z" opacity="1"/><path fill="#341B10" stroke="none" d="M224.686111,216.881927 C224.942444,217.438812 224.845322,217.934982 224.345474,218.233276 C224.072739,217.630661 224.202698,217.225937 224.686111,216.881927 z" opacity="1"/><path fill="#725D44" stroke="none" d="M184.700531,190.904480 C184.668442,189.107513 184.754929,187.480194 185.338669,186.056793 C185.444717,185.798218 187.833221,186.036774 188.703201,186.677231 C189.334045,187.141647 189.640411,189.371094 189.325317,189.564362 C188.040497,190.352417 186.460770,190.659668 184.700531,190.904480 z" opacity="1"/><path fill="#725D44" stroke="none" d="M178.088959,191.558594 C177.247910,189.983322 176.557114,188.509766 176.450119,186.994980 C176.427689,186.677536 178.621582,185.783844 179.670670,185.947479 C180.463669,186.071167 181.795975,187.914658 181.617447,188.201294 C180.806900,189.502808 179.545837,190.523758 178.088959,191.558594 z" opacity="1"/><path fill="#725D44" stroke="none" d="M172.243195,185.987183 C172.640213,187.707703 172.916763,189.302490 172.654617,190.803177 C172.593872,191.151031 170.374573,191.664825 169.719421,191.234039 C168.818100,190.641388 167.761948,188.498291 167.987869,188.280472 C169.076935,187.230499 170.574219,186.603943 172.243195,185.987183 z" opacity="1"/><path fill="#3A2717" stroke="none" d="M363.123169,294.431519 C365.625458,292.304047 368.127747,290.176544 370.630066,288.049072 C371.091339,288.482361 371.552612,288.915619 372.013885,289.348907 C370.481750,291.443115 368.949646,293.537354 367.191681,295.940277 C372.870239,300.478180 370.920288,309.445160 377.631592,314.013031 C379.051727,314.025665 380.761322,314.193542 381.343628,313.462952 C384.524445,309.472107 387.214447,310.141388 390.058624,313.779510 C391.616211,315.771851 393.431427,317.562775 395.130432,319.444550 C394.774384,319.884949 394.418365,320.325348 394.062317,320.765747 C392.756042,319.935120 391.475586,319.059814 390.137207,318.284668 C388.289398,317.214569 385.196991,314.958405 384.727386,315.405426 C382.347900,317.670654 380.549438,320.586761 378.780426,323.420319 C378.402740,324.025269 378.992798,325.234406 379.152618,326.266022 C386.309631,322.172638 386.309631,322.172638 393.403809,328.536926 C394.020721,329.638245 394.351959,330.525299 394.683228,331.412354 C394.344421,331.773773 394.005615,332.135193 393.666809,332.496582 C391.069000,330.378387 388.471222,328.260193 385.931641,326.189484 C379.279175,330.812958 378.483582,332.155487 379.300903,337.104614 C381.564423,336.151642 384.646362,333.776123 385.946808,334.519073 C389.180420,336.366333 391.601929,339.635101 394.349579,342.333038 C393.856689,342.917145 393.363800,343.501251 392.870941,344.085358 C391.187988,342.722931 389.330994,341.523682 387.863953,339.958832 C385.793182,337.750031 384.038269,337.670105 382.145630,340.030121 C380.189758,342.468994 377.938019,344.717590 376.290131,347.346710 C372.889465,352.772400 368.626160,356.472626 361.396484,356.229797 C357.274750,355.610931 353.571716,354.906708 349.528259,354.066223 C345.667938,349.589996 342.088867,345.296326 338.647705,340.894806 C336.077820,337.607788 333.779938,337.604858 331.162445,340.868378 C330.124481,342.162537 328.556763,343.031830 326.737579,343.625641 C326.990326,338.968140 330.701935,336.713562 333.693573,334.525696 C334.803772,333.713837 338.058685,335.834625 340.790710,336.774658 C342.967773,332.475494 339.017395,330.269867 336.369598,327.795776 C333.467987,325.084534 332.112030,328.415924 330.308777,329.769714 C328.992157,330.758118 327.704163,331.784698 326.403412,332.794250 C326.004578,332.432678 325.605713,332.071075 325.206879,331.709503 C326.164856,330.192841 327.122864,328.676147 328.504517,326.691895 C332.715942,321.387085 336.569977,321.311218 340.385162,327.075836 C342.073242,322.780090 340.694977,320.481171 338.574707,317.795135 C332.463684,310.053619 330.403320,321.113251 324.009338,320.231964 C327.581665,316.560944 329.882080,312.672852 333.203827,311.350616 C335.222656,310.546967 338.818604,313.705322 342.515961,315.470581 C345.730591,309.008728 349.071625,302.292877 352.464478,295.472809 C350.999390,293.565643 349.398499,291.481659 347.797607,289.397705 C348.213776,288.992615 348.629913,288.587524 349.046082,288.182465 C350.787018,289.670959 352.659943,291.032623 354.239136,292.676514 C356.850983,295.395416 359.660706,296.373932 363.123169,294.431519 M358.254272,322.782196 C356.210236,317.455475 351.713440,320.728210 348.386688,320.230835 C347.398773,320.083191 345.096191,322.327026 345.021454,323.572601 C344.682983,329.211029 344.619751,334.907745 345.049500,340.538300 C345.453522,345.831909 348.215515,349.999542 353.210510,352.242004 C357.266510,354.062927 358.745209,353.101532 358.715393,348.695068 C358.659058,340.373322 358.449249,332.052612 358.254272,322.782196 M361.752228,323.739746 C361.752228,333.337158 361.752228,342.934570 361.752228,352.485992 C369.125641,352.805298 374.512390,347.841034 375.020844,340.528473 C375.378204,335.388519 375.396210,330.197418 375.104462,325.055359 C375.008118,323.357239 373.203766,320.232025 372.635590,320.332550 C369.006165,320.974609 364.209534,317.178162 361.752228,323.739746 M369.110260,317.029755 C370.818451,316.924652 372.526672,316.819580 374.470306,316.699982 C371.568939,310.140625 364.847382,308.191650 353.062775,310.190582 C349.643402,310.770569 346.270721,311.870819 346.106506,317.030243 C353.653931,317.030243 360.929688,317.030243 369.110260,317.029755 M363.293579,306.965179 C364.933624,306.109985 367.731598,305.511383 367.988922,304.349854 C368.664917,301.298889 366.488586,299.403046 363.464966,299.038727 C361.172882,298.762543 358.805573,298.696289 356.512451,298.932220 C352.159912,299.379974 350.715363,301.965729 352.079132,306.966248 C355.424744,306.966248 358.887024,306.966248 363.293579,306.965179 z" opacity="1"/><path fill="#5F4934" stroke="none" d="M202.894424,296.653992 C212.155106,296.545319 221.416367,296.362610 230.675629,296.435089 C231.672882,296.442902 233.492661,297.906830 233.518753,298.739532 C233.745514,305.977600 233.649551,313.225769 233.649551,321.191803 C228.038483,321.191803 222.963165,321.191803 217.433594,320.704895 C214.554245,317.719788 212.129135,315.221619 209.945801,312.446747 C211.667328,312.170074 213.147079,312.170074 214.562500,312.170074 C214.562500,309.863739 214.562500,307.752441 214.562500,305.502441 C212.194702,305.666351 209.677078,305.840637 206.853195,305.834900 C205.329437,302.654602 204.111923,299.654297 202.894424,296.653992 M221.711456,312.417542 C223.655212,312.258301 225.598953,312.099030 227.301559,311.959564 C227.301559,309.823486 227.301559,307.713959 227.301559,305.714478 C225.200027,305.714478 222.996536,305.714478 221.087906,305.714478 C221.087906,307.872650 221.087906,309.974304 221.711456,312.417542 z" opacity="1"/><path fill="#362013" stroke="none" d="M209.704041,312.723419 C212.129135,315.221619 214.554245,317.719788 216.979004,320.578796 C207.975754,320.939392 198.972839,320.939178 189.504730,320.441986 C188.387894,317.410614 187.736206,314.876251 187.410248,312.405029 C188.403458,310.203644 189.070969,307.939148 189.647278,305.984039 C187.061203,305.501038 185.050949,305.125580 183.039291,304.371094 C182.731766,301.542633 182.425644,299.093140 182.119507,296.643677 C188.744614,296.573273 195.369705,296.502838 202.444611,296.543213 C204.111923,299.654297 205.329437,302.654602 206.989044,306.195435 C207.632599,308.029633 207.680908,309.374512 208.090042,310.598816 C208.356979,311.397614 209.147858,312.021301 209.704041,312.723419 M201.222229,305.160828 C199.180115,305.379333 197.138000,305.597839 195.345840,305.789612 C195.440155,307.876740 195.536041,309.998383 195.626526,312.000549 C197.566193,312.000549 199.656754,312.000549 201.947372,312.000549 C201.947372,309.924652 201.947372,307.652283 201.222229,305.160828 z" opacity="1"/><path fill="#563F2C" stroke="none" d="M187.084534,312.341858 C187.736206,314.876251 188.387894,317.410614 189.052979,320.325043 C180.847198,320.705078 172.627991,320.705078 164.015427,320.705078 C164.015427,312.755707 164.015427,304.915314 164.015427,296.406036 C169.734634,296.406036 175.464828,296.406036 181.657257,296.524841 C182.425644,299.093140 182.731766,301.542633 182.799423,304.641602 C182.560959,307.657990 182.560959,310.024811 182.560959,312.341858 C184.241577,312.341858 185.663055,312.341858 187.084534,312.341858 M176.497742,311.938232 C176.497742,309.792908 176.497742,307.647552 176.497742,305.616211 C174.105911,305.616211 171.848984,305.616211 169.906204,305.616211 C169.906204,307.997223 169.906204,310.156342 169.906204,312.391296 C171.962143,312.391296 173.969254,312.391296 176.497742,311.938232 M164.511124,297.488800 C164.511124,297.488800 164.469315,297.502228 164.511124,297.488800 z" opacity="1"/><path fill="#708B57" stroke="none" d="M363.088928,293.975891 C359.660706,296.373932 356.850983,295.395416 354.239136,292.676514 C352.659943,291.032623 350.787018,289.670959 349.046082,288.182465 C348.629913,288.587524 348.213776,288.992615 347.797607,289.397705 C349.398499,291.481659 350.999390,293.565643 352.464478,295.472809 C349.071625,302.292877 345.730591,309.008728 342.515961,315.470581 C338.818604,313.705322 335.222656,310.546967 333.203827,311.350616 C329.882080,312.672852 327.581665,316.560944 324.009338,320.231964 C330.403320,321.113251 332.463684,310.053619 338.574707,317.795135 C340.694977,320.481171 342.073242,322.780090 340.385162,327.075836 C336.569977,321.311218 332.715942,321.387085 328.631775,326.394897 C325.848053,325.784760 323.406647,324.780182 320.866028,324.258942 C301.876740,320.363068 289.506500,298.809570 296.182007,280.799866 C296.749817,279.267914 298.763062,277.400940 300.280579,277.227509 C314.298004,275.625488 328.353668,274.356476 342.400055,273.010406 C343.557831,272.899475 344.738861,273.016876 345.893341,272.887726 C357.154236,271.627716 360.619659,274.373535 361.964600,285.620270 C362.280182,288.259338 362.688843,290.887238 363.088928,293.975891 z" opacity="1"/><path fill="#3D2417" stroke="none" d="M255.582458,229.775391 C256.125732,238.817764 252.817261,244.877136 246.148834,247.621887 C240.247604,250.050858 232.906006,248.411575 228.741501,243.684814 C224.490097,238.859421 223.494186,233.270905 225.786621,227.393997 C228.087067,221.496506 232.604813,218.070740 239.067444,217.625824 C245.712585,217.168335 250.655807,219.990402 253.948608,225.713333 C254.604385,226.853058 254.982391,228.152618 255.582458,229.775391 M233.347488,229.716049 C232.640137,229.209213 231.932800,228.702377 231.225449,228.195526 C231.039505,228.428177 230.853561,228.660828 230.667618,228.893463 C231.353226,229.686172 232.038834,230.478882 233.122864,231.893051 C239.033798,236.355820 231.070328,238.352219 231.037552,241.873337 C232.897980,241.169250 235.283203,239.625290 235.880600,240.143265 C240.135086,243.832169 243.355453,240.810852 246.356796,239.483963 C245.832916,237.474716 245.080780,235.935211 245.097672,234.404175 C245.149582,229.700516 241.764099,227.383194 237.570984,229.344757 C236.391876,229.896362 234.990952,229.973785 233.347488,229.716049 M243.733139,224.866882 C244.041046,224.288239 244.348953,223.709610 244.473907,223.474777 C241.575760,223.474777 238.919373,223.474777 236.430038,223.474777 C238.206070,227.589752 239.602432,228.044495 243.733139,224.866882 z" opacity="1"/><path fill="#3D2417" stroke="none" d="M246.747498,351.944397 C239.128387,351.539032 234.346207,348.042206 233.025101,342.238800 C231.666046,336.268646 233.996323,330.684601 239.090302,327.704773 C244.103516,324.772125 250.636551,325.399811 254.729187,329.449890 C258.256714,332.940735 259.794067,337.215942 258.440338,342.147888 C256.872589,347.859528 252.966415,351.025574 246.747498,351.944397 M250.116684,337.408813 C246.002991,334.671814 242.717880,334.863983 240.821426,338.128052 C239.014999,341.237213 239.807846,344.241699 242.839081,345.689972 C244.551239,346.507996 247.449219,346.284424 249.159470,345.342834 C252.029541,343.762756 252.084854,340.839355 250.116684,337.408813 z" opacity="1"/><path fill="#5F4934" stroke="none" d="M249.275970,319.096527 C249.670593,325.181488 245.546402,322.337952 242.393082,323.703888 C242.393082,313.985535 242.160217,305.130493 242.537750,296.301575 C242.648209,293.718231 244.854904,292.219818 247.549088,294.533203 C248.660706,295.487732 249.720245,296.502930 251.017273,297.685486 C248.731949,300.491547 246.801941,303.301147 250.931747,306.329712 C245.768616,310.029022 248.696091,314.435944 249.275970,319.096527 z" opacity="1"/><path fill="#6A8351" stroke="none" d="M418.834137,234.995575 C418.916260,242.148575 419.076599,249.301758 419.058929,256.454498 C419.040527,263.888092 417.320404,265.702576 409.931793,265.738464 C391.787903,265.826630 373.643341,265.775635 355.499054,265.775452 C349.173584,265.775391 342.845245,265.874634 336.523468,265.717377 C331.026794,265.580658 328.879730,263.553406 328.812347,258.084808 C328.660614,245.768539 328.805817,233.448853 328.721924,221.131302 C328.702026,218.209488 329.709442,216.914841 332.770966,216.954453 C344.917908,217.111633 357.066711,217.124924 369.613586,217.757141 C373.132599,223.932205 376.252808,229.541641 379.392242,235.513855 C380.742065,236.562424 382.059509,237.810486 383.405487,237.842072 C391.663025,238.035706 399.928986,238.046997 408.187012,237.874680 C409.600250,237.845184 410.989014,236.640503 412.758453,235.980591 C415.029907,235.653503 416.932037,235.324554 418.834137,234.995575 M385.499969,258.913666 C392.653473,258.921051 399.808350,259.005981 406.959412,258.877655 C408.611908,258.848022 410.251312,258.089050 411.896759,257.665649 C411.838593,257.102570 411.780426,256.539520 411.722290,255.976440 C410.196350,255.685852 408.671051,255.145905 407.144409,255.142136 C384.852264,255.087128 362.559845,255.079391 340.267853,255.156143 C338.722321,255.161469 337.179413,255.922226 334.823303,256.546967 C336.196075,257.752838 336.660675,258.519409 337.133911,258.524750 C352.922119,258.703583 368.711121,258.809692 385.499969,258.913666 M356.369995,234.913422 C356.977570,231.362473 360.798920,228.411758 358.863464,223.884613 C354.189484,227.610275 347.803741,244.402206 350.186523,249.491379 C352.455017,244.150146 354.265381,239.887558 356.369995,234.913422 M387.608032,244.942108 C385.097351,245.111481 382.586700,245.280869 380.076019,245.450241 C384.085510,248.891861 408.317291,248.762527 411.739868,245.112274 C404.019653,245.055008 396.299438,244.997742 387.608032,244.942108 M366.869537,236.394211 C362.447479,242.389282 362.447479,242.389282 363.658142,245.259583 C366.491394,241.654190 372.591400,240.260284 371.184082,234.914963 C370.398132,231.929718 367.230408,228.091049 361.001648,228.144379 C363.519135,231.407944 365.165558,233.542343 366.869537,236.394211 M344.132385,240.372482 C340.447052,237.717743 340.237427,235.012024 343.966064,232.186493 C344.477997,231.798569 345.063751,231.238113 345.183929,230.666809 C345.360687,229.826126 345.345184,228.813629 344.999939,228.063873 C344.874481,227.791382 343.455658,227.823502 342.817261,228.122726 C335.771912,231.424866 334.855560,236.473129 340.275726,241.782639 C340.866119,242.360962 341.366791,243.126419 342.072296,243.468063 C343.008240,243.921341 344.104736,244.042969 345.132263,244.307114 C344.967987,243.159454 344.803680,242.011795 344.132385,240.372482 z" opacity="1"/><path fill="#6F8956" stroke="none" d="M418.907745,234.532669 C416.932037,235.324554 415.029907,235.653503 412.478149,235.677155 C407.764832,234.969589 403.699036,234.218948 399.637939,234.243515 C392.881409,234.284332 386.127838,234.822418 379.373047,235.151093 C376.252808,229.541641 373.132599,223.932205 369.997253,217.902649 C385.690460,217.339432 401.398743,217.196350 417.699829,217.264252 C418.473328,217.668884 418.675995,217.835983 418.900574,217.976517 C418.927490,223.340927 418.954407,228.705338 418.907745,234.532669 M387.600403,227.277939 C395.641357,227.008484 403.764404,227.868546 411.703857,226.202576 C407.684326,223.013794 382.719757,223.333817 379.509705,226.675232 C382.286163,226.910309 384.460815,227.094421 387.600403,227.277939 z" opacity="1"/><path fill="#6A8351" stroke="none" d="M418.852356,217.760162 C418.675995,217.835983 418.473328,217.668884 418.166962,217.323425 C418.370148,217.143005 418.624390,217.267075 418.852356,217.760162 z" opacity="1"/><path fill="#6A8351" stroke="none" d="M358.278748,323.256836 C358.449249,332.052612 358.659058,340.373322 358.715393,348.695068 C358.745209,353.101532 357.266510,354.062927 353.210510,352.242004 C348.215515,349.999542 345.453522,345.831909 345.049500,340.538300 C344.619751,334.907745 344.682983,329.211029 345.021454,323.572601 C345.096191,322.327026 347.398773,320.083191 348.386688,320.230835 C351.713440,320.728210 356.210236,317.455475 358.278748,323.256836 z" opacity="1"/><path fill="#6A8452" stroke="none" d="M361.772949,323.268585 C364.209534,317.178162 369.006165,320.974609 372.635590,320.332550 C373.203766,320.232025 375.008118,323.357239 375.104462,325.055359 C375.396210,330.197418 375.378204,335.388519 375.020844,340.528473 C374.512390,347.841034 369.125641,352.805298 361.752228,352.485992 C361.752228,342.934570 361.752228,333.337158 361.772949,323.268585 z" opacity="1"/><path fill="#6A8552" stroke="none" d="M368.657867,317.029999 C360.929688,317.030243 353.653931,317.030243 346.106506,317.030243 C346.270721,311.870819 349.643402,310.770569 353.062775,310.190582 C364.847382,308.191650 371.568939,310.140625 374.470306,316.699982 C372.526672,316.819580 370.818451,316.924652 368.657867,317.029999 z" opacity="1"/><path fill="#6A8552" stroke="none" d="M362.821442,306.965698 C358.887024,306.966248 355.424744,306.966248 352.079132,306.966248 C350.715363,301.965729 352.159912,299.379974 356.512451,298.932220 C358.805573,298.696289 361.172882,298.762543 363.464966,299.038727 C366.488586,299.403046 368.664917,301.298889 367.988922,304.349854 C367.731598,305.511383 364.933624,306.109985 362.821442,306.965698 z" opacity="1"/><path fill="#D0BE91" stroke="none" d="M209.945801,312.446747 C209.147858,312.021301 208.356979,311.397614 208.090042,310.598816 C207.680908,309.374512 207.632599,308.029633 207.295288,306.375427 C209.677078,305.840637 212.194702,305.666351 214.562500,305.502441 C214.562500,307.752441 214.562500,309.863739 214.562500,312.170074 C213.147079,312.170074 211.667328,312.170074 209.945801,312.446747 z" opacity="1"/><path fill="#D0BE91" stroke="none" d="M221.399689,312.246765 C221.087906,309.974304 221.087906,307.872650 221.087906,305.714478 C222.996536,305.714478 225.200027,305.714478 227.301559,305.714478 C227.301559,307.713959 227.301559,309.823486 227.301559,311.959564 C225.598953,312.099030 223.655212,312.258301 221.399689,312.246765 z" opacity="1"/><path fill="#D0BE91" stroke="none" d="M187.410248,312.405029 C185.663055,312.341858 184.241577,312.341858 182.560959,312.341858 C182.560959,310.024811 182.560959,307.657990 182.800827,305.020630 C185.050949,305.125580 187.061203,305.501038 189.647278,305.984039 C189.070969,307.939148 188.403458,310.203644 187.410248,312.405029 z" opacity="1"/><path fill="#D0BE91" stroke="none" d="M201.584808,305.270386 C201.947372,307.652283 201.947372,309.924652 201.947372,312.000549 C199.656754,312.000549 197.566193,312.000549 195.626526,312.000549 C195.536041,309.998383 195.440155,307.876740 195.345840,305.789612 C197.138000,305.597839 199.180115,305.379333 201.584808,305.270386 z" opacity="1"/><path fill="#D0BE91" stroke="none" d="M176.237061,312.164764 C173.969254,312.391296 171.962143,312.391296 169.906204,312.391296 C169.906204,310.156342 169.906204,307.997223 169.906204,305.616211 C171.848984,305.616211 174.105911,305.616211 176.497742,305.616211 C176.497742,307.647552 176.497742,309.792908 176.237061,312.164764 z" opacity="1"/><path fill="#5F4934" stroke="none" d="M164.490219,297.495514 C164.469315,297.502228 164.511124,297.488800 164.490219,297.495514 z" opacity="1"/><path fill="#E5D4A2" stroke="none" d="M233.691772,230.268707 C234.990952,229.973785 236.391876,229.896362 237.570984,229.344757 C241.764099,227.383194 245.149582,229.700516 245.097672,234.404175 C245.080780,235.935211 245.832916,237.474716 246.356796,239.483963 C243.355453,240.810852 240.135086,243.832169 235.880600,240.143265 C235.283203,239.625290 232.897980,241.169250 231.037552,241.873337 C231.070328,238.352219 239.033798,236.355820 233.166626,231.332703 C233.370850,230.604462 233.531311,230.436584 233.691772,230.268707 z" opacity="1"/><path fill="#D0BE91" stroke="none" d="M243.495514,225.130066 C239.602432,228.044495 238.206070,227.589752 236.430038,223.474777 C238.919373,223.474777 241.575760,223.474777 244.473907,223.474777 C244.348953,223.709610 244.041046,224.288239 243.495514,225.130066 z" opacity="1"/><path fill="#E5D4A2" stroke="none" d="M232.967407,231.021973 C232.038834,230.478882 231.353226,229.686172 230.667618,228.893463 C230.853561,228.660828 231.039505,228.428177 231.225449,228.195526 C231.932800,228.702377 232.640137,229.209213 233.519623,229.992371 C233.531311,230.436584 233.370850,230.604462 232.967407,231.021973 z" opacity="1"/><path fill="#D0BE91" stroke="none" d="M250.325836,337.704346 C252.084854,340.839355 252.029541,343.762756 249.159470,345.342834 C247.449219,346.284424 244.551239,346.507996 242.839081,345.689972 C239.807846,344.241699 239.014999,341.237213 240.821426,338.128052 C242.717880,334.863983 246.002991,334.671814 250.325836,337.704346 M248.747726,340.683777 C247.737457,338.375214 246.150223,336.871552 243.952591,339.001373 C243.225693,339.705872 243.241241,342.480408 243.971268,343.137482 C246.082565,345.037750 247.852310,343.962708 248.747726,340.683777 z" opacity="1"/><path fill="#3C2C1A" stroke="none" d="M385.000000,258.920044 C368.711121,258.809692 352.922119,258.703583 337.133911,258.524750 C336.660675,258.519409 336.196075,257.752838 334.823303,256.546967 C337.179413,255.922226 338.722321,255.161469 340.267853,255.156143 C362.559845,255.079391 384.852264,255.087128 407.144409,255.142136 C408.671051,255.145905 410.196350,255.685852 411.722290,255.976440 C411.780426,256.539520 411.838593,257.102570 411.896759,257.665649 C410.251312,258.089050 408.611908,258.848022 406.959412,258.877655 C399.808350,259.005981 392.653473,258.921051 385.000000,258.920044 z" opacity="1"/><path fill="#3C2C1A" stroke="none" d="M379.392242,235.513855 C386.127838,234.822418 392.881409,234.284332 399.637939,234.243515 C403.699036,234.218948 407.764832,234.969589 412.108826,235.675278 C410.989014,236.640503 409.600250,237.845184 408.187012,237.874680 C399.928986,238.046997 391.663025,238.035706 383.405487,237.842072 C382.059509,237.810486 380.742065,236.562424 379.392242,235.513855 z" opacity="1"/><path fill="#3A2717" stroke="none" d="M356.222870,235.269196 C354.265381,239.887558 352.455017,244.150146 350.186523,249.491379 C347.803741,244.402206 354.189484,227.610275 358.863464,223.884613 C360.798920,228.411758 356.977570,231.362473 356.222870,235.269196 z" opacity="1"/><path fill="#351D11" stroke="none" d="M388.093628,244.941284 C396.299438,244.997742 404.019653,245.055008 411.739868,245.112274 C408.317291,248.762527 384.085510,248.891861 380.076019,245.450241 C382.586700,245.280869 385.097351,245.111481 388.093628,244.941284 z" opacity="1"/><path fill="#3A2717" stroke="none" d="M366.840759,236.035477 C365.165558,233.542343 363.519135,231.407944 361.001648,228.144379 C367.230408,228.091049 370.398132,231.929718 371.184082,234.914963 C372.591400,240.260284 366.491394,241.654190 363.658142,245.259583 C362.447479,242.389282 362.447479,242.389282 366.840759,236.035477 z" opacity="1"/><path fill="#3A2717" stroke="none" d="M344.385895,240.618317 C344.803680,242.011795 344.967987,243.159454 345.132263,244.307098 C344.104736,244.042969 343.008240,243.921341 342.072296,243.468063 C341.366791,243.126419 340.866119,242.360962 340.275726,241.782639 C334.855560,236.473129 335.771912,231.424866 342.817261,228.122726 C343.455658,227.823502 344.874481,227.791382 344.999939,228.063873 C345.345184,228.813629 345.360687,229.826126 345.183929,230.666809 C345.063751,231.238113 344.477997,231.798569 343.966064,232.186493 C340.237427,235.012024 340.447052,237.717743 344.385895,240.618317 z" opacity="1"/><path fill="#351D11" stroke="none" d="M387.117920,227.278244 C384.460815,227.094421 382.286163,226.910309 379.509705,226.675232 C382.719757,223.333817 407.684326,223.013794 411.703857,226.202576 C403.764404,227.868546 395.641357,227.008484 387.117920,227.278244 z" opacity="1"/><path fill="#533C2A" stroke="none" d="M248.770569,341.064331 C247.852310,343.962708 246.082565,345.037750 243.971268,343.137482 C243.241241,342.480408 243.225693,339.705872 243.952591,339.001373 C246.150223,336.871552 247.737457,338.375214 248.770569,341.064331 z" opacity="1"/></svg>